<svg width="347" height="172" viewBox="0 0 347 172" fill="none" xmlns="http://www.w3.org/2000/svg">
<path d="M21.96 43.8C21.96 33.72 29.28 25.44 38.4 25.44H50.4C55.32 25.44 60.84 27.84 63.84 31.68L79.44 19.68C73.2 13.68 59.76 9.95999 50.4 9.95999H38.4C19.44 9.95999 3.96 25.08 3.96 43.8V65.16C3.96 83.88 19.44 99 38.4 99H50.4C59.76 99 73.2 95.28 79.44 89.28L63.84 77.28C60.84 81.12 55.32 83.52 50.4 83.52H38.4C29.28 83.52 21.96 75.24 21.96 65.16V43.8ZM110.767 83.52V9.95999H92.7666V83.28C92.7666 91.92 100.327 99 109.687 99H161.527L153.127 83.52H110.767ZM225.23 87.12L229.43 99H248.63L222.47 24.48C219.35 15.6 213.95 8.76 204.59 8.76C195.23 8.76 189.83 15.6 186.71 24.48L160.55 99H179.75L204.59 27.96L219.83 71.64H195.83L186.23 87.12H225.23ZM276.701 9.36C267.341 9.36 258.581 16.44 258.581 25.08V99H276.581V25.08L301.541 83.88C305.261 92.52 310.061 99.6 319.421 99.6C328.781 99.6 337.541 92.52 337.541 83.88V9.95999H319.541V83.88L294.581 25.08C290.861 16.44 286.061 9.36 276.701 9.36Z" fill="black"/>
<path d="M60.618 163.37C58.4967 163.37 56.622 162.951 54.994 162.112C53.3907 161.273 52.0093 160.015 50.85 158.338L53.588 155.193C54.7967 156.92 55.956 158.116 57.066 158.782C58.176 159.448 59.4957 159.781 61.025 159.781C61.9623 159.781 62.8133 159.633 63.578 159.337C64.3427 159.041 64.947 158.634 65.391 158.116C65.835 157.598 66.057 157.006 66.057 156.34C66.057 155.896 65.983 155.477 65.835 155.082C65.687 154.687 65.4527 154.33 65.132 154.009C64.836 153.688 64.4413 153.392 63.948 153.121C63.4793 152.85 62.9243 152.615 62.283 152.418C61.6417 152.196 60.9017 152.011 60.063 151.863C58.731 151.592 57.5717 151.234 56.585 150.79C55.5983 150.346 54.772 149.791 54.106 149.125C53.44 148.459 52.9467 147.707 52.626 146.868C52.3053 146.005 52.145 145.043 52.145 143.982C52.145 142.576 52.5397 141.33 53.329 140.245C54.1183 139.16 55.179 138.309 56.511 137.692C57.8677 137.051 59.3847 136.73 61.062 136.73C63.06 136.73 64.799 137.125 66.279 137.914C67.7837 138.679 68.9677 139.801 69.831 141.281L67.019 144.056C66.279 142.847 65.391 141.922 64.355 141.281C63.3437 140.64 62.209 140.319 60.951 140.319C59.989 140.319 59.1503 140.467 58.435 140.763C57.7197 141.059 57.1523 141.478 56.733 142.021C56.3383 142.539 56.141 143.156 56.141 143.871C56.141 144.389 56.2397 144.87 56.437 145.314C56.6343 145.733 56.9303 146.116 57.325 146.461C57.7443 146.782 58.2993 147.078 58.99 147.349C59.6807 147.596 60.507 147.818 61.469 148.015C62.8257 148.311 64.0343 148.693 65.095 149.162C66.1557 149.606 67.056 150.136 67.796 150.753C68.536 151.37 69.091 152.06 69.461 152.825C69.8557 153.59 70.053 154.416 70.053 155.304C70.053 156.957 69.6707 158.387 68.906 159.596C68.1413 160.805 67.056 161.742 65.65 162.408C64.244 163.049 62.5667 163.37 60.618 163.37ZM96.4349 163V137.1H106.98C108.386 137.1 109.656 137.458 110.791 138.173C111.95 138.864 112.875 139.813 113.566 141.022C114.257 142.231 114.602 143.575 114.602 145.055C114.602 146.535 114.257 147.879 113.566 149.088C112.875 150.297 111.95 151.271 110.791 152.011C109.656 152.726 108.386 153.084 106.98 153.084H100.431V163H96.4349ZM100.431 149.236H106.906C107.572 149.236 108.176 149.051 108.719 148.681C109.262 148.286 109.693 147.781 110.014 147.164C110.359 146.523 110.532 145.82 110.532 145.055C110.532 144.29 110.359 143.6 110.014 142.983C109.693 142.366 109.262 141.873 108.719 141.503C108.176 141.133 107.572 140.948 106.906 140.948H100.431V149.236ZM151.446 163.37C149.621 163.37 147.931 163.037 146.377 162.371C144.848 161.705 143.503 160.78 142.344 159.596C141.209 158.387 140.321 156.981 139.68 155.378C139.063 153.75 138.755 151.974 138.755 150.05C138.755 148.126 139.063 146.362 139.68 144.759C140.321 143.131 141.209 141.725 142.344 140.541C143.503 139.332 144.848 138.395 146.377 137.729C147.931 137.063 149.621 136.73 151.446 136.73C153.271 136.73 154.949 137.063 156.478 137.729C158.032 138.395 159.376 139.332 160.511 140.541C161.67 141.75 162.558 143.168 163.175 144.796C163.816 146.399 164.137 148.151 164.137 150.05C164.137 151.949 163.816 153.713 163.175 155.341C162.558 156.944 161.67 158.35 160.511 159.559C159.376 160.768 158.032 161.705 156.478 162.371C154.949 163.037 153.271 163.37 151.446 163.37ZM151.446 159.485C152.704 159.485 153.851 159.251 154.887 158.782C155.948 158.313 156.86 157.66 157.625 156.821C158.39 155.958 158.982 154.959 159.401 153.824C159.845 152.665 160.067 151.407 160.067 150.05C160.067 148.693 159.845 147.448 159.401 146.313C158.982 145.154 158.39 144.155 157.625 143.316C156.86 142.453 155.948 141.787 154.887 141.318C153.851 140.849 152.704 140.615 151.446 140.615C150.188 140.615 149.029 140.849 147.968 141.318C146.932 141.787 146.019 142.44 145.23 143.279C144.465 144.118 143.873 145.117 143.454 146.276C143.035 147.411 142.825 148.669 142.825 150.05C142.825 151.875 143.195 153.503 143.935 154.934C144.675 156.34 145.686 157.45 146.969 158.264C148.276 159.078 149.769 159.485 151.446 159.485ZM190.267 163V137.1H201.293C202.773 137.1 204.13 137.47 205.363 138.21C206.621 138.925 207.62 139.912 208.36 141.17C209.1 142.403 209.47 143.797 209.47 145.351C209.47 146.757 209.1 148.064 208.36 149.273C207.62 150.482 206.634 151.456 205.4 152.196C204.167 152.911 202.798 153.269 201.293 153.269H194.263V163H190.267ZM205.659 163L199.073 151.308L203.18 150.383L210.506 163.037L205.659 163ZM194.263 149.421H201.663C202.379 149.421 203.02 149.248 203.587 148.903C204.155 148.533 204.599 148.04 204.919 147.423C205.24 146.782 205.4 146.079 205.4 145.314C205.4 144.451 205.191 143.698 204.771 143.057C204.377 142.391 203.809 141.873 203.069 141.503C202.354 141.133 201.54 140.948 200.627 140.948H194.263V149.421ZM240.912 163V140.948H233.66V137.1H252.382V140.948H244.908V163H240.912ZM286.022 163.37C283.9 163.37 282.026 162.951 280.398 162.112C278.794 161.273 277.413 160.015 276.254 158.338L278.992 155.193C280.2 156.92 281.36 158.116 282.47 158.782C283.58 159.448 284.899 159.781 286.429 159.781C287.366 159.781 288.217 159.633 288.982 159.337C289.746 159.041 290.351 158.634 290.795 158.116C291.239 157.598 291.461 157.006 291.461 156.34C291.461 155.896 291.387 155.477 291.239 155.082C291.091 154.687 290.856 154.33 290.536 154.009C290.24 153.688 289.845 153.392 289.352 153.121C288.883 152.85 288.328 152.615 287.687 152.418C287.045 152.196 286.305 152.011 285.467 151.863C284.135 151.592 282.975 151.234 281.989 150.79C281.002 150.346 280.176 149.791 279.51 149.125C278.844 148.459 278.35 147.707 278.03 146.868C277.709 146.005 277.549 145.043 277.549 143.982C277.549 142.576 277.943 141.33 278.733 140.245C279.522 139.16 280.583 138.309 281.915 137.692C283.271 137.051 284.788 136.73 286.466 136.73C288.464 136.73 290.203 137.125 291.683 137.914C293.187 138.679 294.371 139.801 295.235 141.281L292.423 144.056C291.683 142.847 290.795 141.922 289.759 141.281C288.747 140.64 287.613 140.319 286.355 140.319C285.393 140.319 284.554 140.467 283.839 140.763C283.123 141.059 282.556 141.478 282.137 142.021C281.742 142.539 281.545 143.156 281.545 143.871C281.545 144.389 281.643 144.87 281.841 145.314C282.038 145.733 282.334 146.116 282.729 146.461C283.148 146.782 283.703 147.078 284.394 147.349C285.084 147.596 285.911 147.818 286.873 148.015C288.229 148.311 289.438 148.693 290.499 149.162C291.559 149.606 292.46 150.136 293.2 150.753C293.94 151.37 294.495 152.06 294.865 152.825C295.259 153.59 295.457 154.416 295.457 155.304C295.457 156.957 295.074 158.387 294.31 159.596C293.545 160.805 292.46 161.742 291.054 162.408C289.648 163.049 287.97 163.37 286.022 163.37Z" fill="black"/>
</svg>
