<svg xmlns="http://www.w3.org/2000/svg" xmlns:xlink="http://www.w3.org/1999/xlink" width="1024" zoomAndPan="magnify" viewBox="0 0 768 576" height="768" preserveAspectRatio="xMidYMid meet" version="1.0"><defs><clipPath id="1dd98de1f7"><path d="M 309.65625 23.777344 L 751.40625 23.777344 L 751.40625 533.027344 L 309.65625 533.027344 Z M 309.65625 23.777344 " clip-rule="nonzero"/></clipPath></defs><g clip-path="url(#1dd98de1f7)"><path fill="#000000" d="M 315.976562 24.722656 C 316.195312 24.40625 316.433594 24.09375 316.683594 23.777344 C 318.382812 25.367188 320.558594 26.40625 322.824219 26.894531 C 324.683594 27.304688 326.683594 27.242188 328.476562 26.566406 C 330.570312 27.699219 332.257812 29.445312 334.398438 30.484375 L 343.9375 34.785156 C 344.300781 34.941406 344.664062 35.082031 344.976562 35.335938 C 347.183594 37.128906 349.417969 38.894531 351.671875 40.625 C 353.433594 41.996094 355.230469 43.367188 356.707031 45.050781 C 357.496094 45.886719 357.746094 47.050781 358.21875 48.058594 C 359.355469 50.972656 360.851562 53.710938 362.234375 56.515625 L 366.960938 65.960938 C 368.519531 68.984375 369.839844 72.101562 371.273438 75.1875 C 371.605469 75.867188 371.839844 76.574219 372.265625 77.1875 C 373.855469 79.425781 375.429688 81.691406 377.035156 83.929688 C 377.179688 84.117188 377.273438 84.320312 377.351562 84.558594 C 378.453125 87.707031 379.570312 90.839844 380.671875 93.988281 C 380.910156 94.683594 381.191406 95.359375 381.367188 96.070312 C 382.3125 100.210938 383.253906 104.367188 384.214844 108.507812 C 384.34375 109.074219 384.453125 109.640625 384.65625 110.175781 C 385.886719 113.609375 387.097656 117.042969 388.324219 120.476562 C 388.5 120.980469 388.65625 121.484375 388.941406 121.941406 C 392.386719 127.90625 395.773438 133.90625 399.472656 139.71875 C 400.417969 141.417969 401.472656 143.070312 402.511719 144.707031 C 403.582031 146.332031 404.667969 147.96875 405.992188 149.417969 C 406.496094 149.96875 407.0625 150.503906 407.753906 150.835938 C 407.914062 150.753906 408.085938 150.675781 408.257812 150.613281 C 410.210938 146.835938 410.605469 142.535156 411.296875 138.410156 C 411.566406 136.789062 411.867188 135.167969 412.117188 133.527344 C 412.210938 132.804688 412.433594 132.066406 412.320312 131.324219 C 412.101562 129.71875 411.410156 128.238281 410.605469 126.851562 C 409.441406 124.882812 408.007812 123.089844 406.464844 121.40625 C 406.070312 120.949219 405.503906 120.695312 405.078125 120.269531 C 403.347656 118.851562 401.679688 117.375 399.929688 115.988281 C 398.875 115.152344 397.945312 113.988281 397.851562 112.601562 C 397.742188 111.640625 398.464844 110.886719 399.097656 110.257812 C 399.773438 109.785156 400.78125 109.6875 401.160156 108.855469 C 401.550781 108.160156 401.09375 107.4375 400.921875 106.761719 C 400.75 106.160156 401.109375 105.515625 401.648438 105.265625 C 402.324219 105.136719 402.953125 105.5 403.582031 105.707031 C 403.15625 104.933594 402.496094 104.226562 402.496094 103.296875 C 402.464844 102.652344 402.984375 102.195312 403.457031 101.832031 C 403.929688 101.816406 404.417969 102.066406 404.890625 101.910156 C 405.441406 101.578125 405.675781 100.777344 405.269531 100.257812 C 404.796875 99.53125 404.828125 98.570312 405.253906 97.832031 C 405.457031 97.5 405.867188 97.453125 406.210938 97.390625 C 407.597656 97.296875 408.984375 97.265625 410.355469 97.078125 C 411.3125 96.808594 412.304688 96.871094 413.265625 96.605469 C 413.046875 96.226562 412.746094 95.910156 412.464844 95.597656 C 412.464844 94.980469 412.480469 94.382812 412.511719 93.769531 C 412.746094 94.621094 413.375 95.484375 414.257812 95.660156 C 415.140625 94.730469 415.753906 93.582031 416.683594 92.683594 C 416.273438 90.320312 417.109375 87.910156 418.460938 85.992188 C 418.808594 85.457031 419.359375 85.09375 419.722656 84.574219 C 420.382812 83.691406 421.34375 83.078125 422.335938 82.636719 C 423.988281 81.898438 425.785156 81.582031 427.546875 81.3125 C 432.585938 80.605469 437.859375 81.234375 442.523438 83.328125 C 443.011719 83.550781 443.578125 83.441406 444.082031 83.628906 C 447.199219 85.203125 450.347656 86.761719 453.054688 89 C 456.644531 91.832031 459.371094 95.550781 461.9375 99.296875 C 462.628906 101.089844 463.257812 102.917969 463.921875 104.730469 C 464.328125 105.832031 464.425781 107.027344 464.707031 108.175781 C 464.863281 108.792969 465.101562 109.421875 465.574219 109.863281 C 466.597656 110.824219 467.636719 111.800781 468.660156 112.773438 C 468.660156 114.285156 468.753906 115.796875 468.722656 117.308594 C 468.09375 119.65625 467.054688 121.875 465.933594 124.035156 C 464.960938 125.84375 463.90625 127.609375 462.597656 129.214844 C 462 129.84375 461.480469 130.710938 460.582031 130.945312 C 458.519531 131.308594 456.410156 130.804688 454.363281 131.152344 C 451.621094 131.96875 449.71875 134.316406 447.152344 135.496094 C 445.75 136.191406 444.347656 136.898438 442.945312 137.589844 C 441.546875 138.394531 439.90625 138.644531 438.398438 139.167969 C 437.8125 140.125 437.167969 141.054688 436.617188 142.03125 C 437.71875 143.699219 438.964844 145.339844 440.617188 146.488281 C 441.105469 146.789062 441.625 147.070312 441.988281 147.542969 C 444.570312 145.339844 447.121094 143.085938 449.640625 140.820312 C 450.03125 140.472656 450.394531 140.078125 450.867188 139.828125 C 453.558594 138.425781 456.253906 137.023438 458.929688 135.609375 C 461.386719 134.191406 463.871094 132.851562 466.40625 131.59375 C 469.574219 130 472.847656 128.601562 476.042969 127.089844 C 477.195312 126.507812 478.46875 126.128906 479.460938 125.308594 C 482.058594 123.386719 484.65625 121.46875 487.253906 119.5625 C 494.703125 114.191406 501.550781 108.050781 508.636719 102.226562 C 509.550781 101.546875 510.195312 100.601562 510.953125 99.785156 C 513.25 97.140625 515.550781 94.507812 517.832031 91.863281 C 518.164062 91.4375 518.699219 91.234375 519.15625 90.964844 C 521.785156 89.457031 524.445312 87.960938 527.074219 86.449219 C 534.238281 82.132812 541.417969 77.820312 548.582031 73.488281 C 552.191406 70.90625 555.78125 68.292969 559.371094 65.695312 C 559.859375 65.0625 560.628906 64.75 561.273438 64.308594 C 565.304688 61.820312 569.289062 59.144531 573.792969 57.601562 C 577.761719 56.277344 582.011719 56.625 586.121094 56.214844 C 596.039062 54.953125 605.976562 53.949219 615.941406 53.144531 C 616.527344 54.386719 615.816406 55.914062 614.714844 56.609375 C 613 57.175781 611.25 57.664062 609.519531 58.183594 C 609.234375 58.292969 608.875 58.308594 608.667969 58.578125 C 610.242188 59.347656 611.992188 59.648438 613.722656 59.773438 C 615.25 59.914062 616.808594 59.945312 618.289062 60.402344 C 618.335938 60.6875 618.382812 60.96875 618.445312 61.253906 C 617.390625 62.277344 615.847656 62.433594 614.449219 62.527344 C 611.25 62.671875 608.070312 62.167969 604.96875 61.472656 C 603.332031 61.082031 601.710938 60.609375 600.183594 59.882812 C 598.054688 61.503906 595.742188 62.890625 593.648438 64.574219 C 596.074219 65.789062 598.78125 66.464844 601.03125 68.054688 C 602.054688 68.765625 602.921875 69.882812 602.859375 71.191406 C 602.953125 71.867188 602.496094 72.574219 601.835938 72.71875 C 601 72.796875 600.183594 72.527344 599.425781 72.195312 C 597.960938 71.535156 596.65625 70.558594 595.253906 69.757812 C 594.261719 69.191406 593.222656 68.589844 592.058594 68.464844 C 586.941406 67.648438 581.839844 66.84375 576.722656 66.023438 C 573.082031 68.75 569.445312 71.472656 565.824219 74.210938 C 563.777344 75.992188 561.875 77.914062 559.953125 79.835938 C 555.84375 83.929688 551.671875 87.960938 547.167969 91.613281 C 544.601562 93.925781 542.113281 96.320312 539.546875 98.621094 C 535.375 101.28125 531.167969 103.894531 526.996094 106.539062 C 526.164062 107.121094 525.203125 107.53125 524.507812 108.289062 C 518.054688 114.695312 511.519531 121.027344 505.03125 127.417969 C 502.652344 129.8125 500.292969 132.222656 497.898438 134.617188 C 493.019531 138.914062 488.121094 143.210938 483.238281 147.511719 C 481.382812 149.179688 479.445312 150.753906 477.699219 152.535156 C 474.234375 155.953125 470.628906 159.226562 467.085938 162.566406 C 466.753906 162.910156 466.28125 163.164062 466.140625 163.652344 C 465.273438 166.484375 464.140625 169.242188 463.402344 172.121094 C 462 177.445312 460.519531 182.75 459.054688 188.058594 C 458.722656 189.332031 458.628906 190.65625 458.566406 191.964844 C 458.425781 195.835938 458.785156 199.710938 458.882812 203.601562 C 460.503906 204.921875 462.140625 206.230469 463.777344 207.550781 C 469.855469 207.519531 475.933594 207.503906 482.011719 207.457031 C 484.515625 207.144531 487.035156 207.191406 489.539062 207.363281 C 490.796875 207.441406 492.058594 207.710938 493.332031 207.695312 C 494.59375 207.710938 495.851562 207.898438 497.113281 207.757812 C 498.640625 207.992188 500.230469 207.726562 501.582031 206.984375 C 508.828125 203.207031 516.054688 199.410156 523.296875 195.632812 C 523.691406 195.441406 524.050781 195.160156 524.492188 195.128906 C 525.546875 195.035156 526.585938 194.765625 527.59375 194.433594 C 528.035156 194.292969 528.367188 193.949219 528.730469 193.679688 C 531.042969 191.851562 533.359375 190.042969 535.671875 188.214844 C 537.988281 186.421875 540.222656 184.53125 542.679688 182.925781 C 548.03125 179.351562 553.78125 176.328125 559.90625 174.3125 C 561.195312 173.933594 562.488281 173.429688 563.855469 173.460938 C 565.242188 173.320312 566.691406 173.507812 568.015625 172.988281 C 570.894531 172.011719 573.554688 170.4375 576.5 169.683594 C 577.714844 169.398438 579.097656 169.210938 580.25 169.761719 C 580.703125 170.816406 580.972656 171.933594 581.554688 172.941406 C 582.328125 172.644531 583.082031 172.28125 583.855469 171.949219 C 584.230469 172.1875 584.671875 172.390625 584.972656 172.738281 C 585.460938 173.523438 584.734375 174.515625 585.238281 175.304688 C 586.292969 177.191406 587.332031 179.082031 588.386719 180.972656 C 587.710938 182.988281 585.757812 184.152344 583.949219 185.035156 C 587.128906 184.214844 590.308594 183.382812 593.488281 182.59375 C 596.859375 181.695312 600.292969 181.019531 603.691406 180.28125 C 604.277344 180.152344 604.859375 180.058594 605.425781 179.871094 C 610.714844 177.871094 616.007812 175.855469 621.296875 173.839844 C 622.066406 173.585938 622.886719 173.460938 623.675781 173.273438 C 628.761719 172.171875 633.863281 171.066406 638.949219 169.964844 C 640.882812 169.589844 642.789062 169.035156 644.757812 168.832031 C 654.15625 167.605469 663.574219 166.5 672.972656 165.335938 C 682.167969 163.460938 691.238281 160.894531 700.054688 157.652344 C 702.339844 156.847656 704.527344 155.746094 706.464844 154.296875 C 709.644531 151.984375 712.195312 148.976562 714.667969 145.953125 C 716.085938 144.488281 717.566406 143.070312 718.996094 141.605469 C 719.847656 140.628906 720.699219 139.636719 721.628906 138.742188 C 725.453125 134.960938 729.800781 131.71875 734.492188 129.105469 C 737.46875 127.480469 740.632812 126.082031 743.984375 125.46875 C 744.570312 125.308594 745.023438 125.828125 745.511719 126.050781 C 748.0625 127.515625 749.796875 129.984375 751.246094 132.472656 C 750.992188 135.230469 749.828125 137.796875 748.316406 140.078125 C 747.464844 141.371094 746.519531 142.582031 745.609375 143.8125 C 744.519531 145.226562 743.59375 146.738281 742.585938 148.21875 C 742.300781 148.582031 741.890625 148.769531 741.53125 149.039062 C 739.988281 150.078125 738.429688 151.085938 736.902344 152.15625 C 732.414062 155.839844 727.910156 159.527344 723.453125 163.242188 C 722.210938 164.234375 720.917969 165.179688 719.484375 165.902344 C 716.714844 167.226562 713.769531 168.109375 710.824219 168.910156 C 703.945312 170.769531 696.828125 171.839844 690.214844 174.5625 C 689.097656 175.128906 688.074219 175.886719 687.003906 176.53125 C 681.507812 179.933594 676.121094 183.523438 670.46875 186.65625 C 664.015625 190.308594 657.355469 193.585938 650.773438 197.003906 C 649.214844 197.804688 647.671875 198.625 646.097656 199.410156 C 643.230469 200.578125 640.175781 201.144531 637.183594 201.820312 C 631.671875 203.113281 626.210938 204.59375 620.871094 206.480469 C 619.941406 206.84375 618.980469 207.109375 618.132812 207.648438 C 614.414062 209.773438 610.714844 211.898438 607 214.007812 C 606.324219 214.371094 605.675781 214.84375 604.9375 215.09375 C 596.703125 218.101562 588.484375 221.109375 580.25 224.101562 C 579.523438 224.320312 578.910156 224.746094 578.265625 225.109375 C 575.808594 226.480469 573.367188 227.878906 570.910156 229.25 C 568.40625 230.480469 565.886719 231.660156 563.382812 232.902344 C 563.746094 235.390625 564.34375 237.863281 564.265625 240.382812 C 564.109375 244.367188 561.226562 247.800781 561.605469 251.863281 C 560.914062 252.429688 560.015625 252.617188 559.148438 252.664062 C 558.738281 252.726562 558.1875 252.726562 557.96875 253.152344 C 557.527344 253.894531 557.132812 254.664062 556.691406 255.390625 C 554.628906 255.011719 552.582031 254.648438 550.519531 254.304688 C 549.640625 255.328125 548.992188 256.585938 547.875 257.390625 C 546.992188 258.066406 545.796875 257.78125 544.804688 258.097656 C 543.105469 259.453125 541.417969 260.835938 539.734375 262.222656 C 539.828125 262.757812 539.925781 263.292969 540.035156 263.84375 C 530.476562 267.65625 521.4375 272.601562 512.605469 277.859375 C 512.542969 278.898438 512.605469 279.953125 512.417969 280.992188 C 511.628906 286.078125 510.953125 291.179688 510.101562 296.25 C 509.976562 303.289062 509.914062 310.328125 509.800781 317.367188 C 509.722656 320.671875 509.835938 323.980469 509.535156 327.285156 C 508.589844 340.78125 507.628906 354.277344 506.683594 367.753906 C 506.652344 368.304688 506.542969 368.871094 506.652344 369.421875 C 507.1875 371.816406 507.722656 374.195312 508.257812 376.589844 C 508.511719 377.925781 508.96875 379.234375 509.015625 380.605469 C 509.296875 384.980469 509.628906 389.34375 509.882812 393.71875 C 509.835938 400.332031 509.976562 406.945312 510.085938 413.5625 C 510.101562 414.128906 509.945312 414.695312 509.835938 415.246094 C 508.242188 422.695312 505.960938 429.984375 503.394531 437.164062 C 501.207031 443.320312 498.828125 449.414062 496.625 455.554688 C 495 460.136719 493.585938 464.800781 492.058594 469.414062 C 491.476562 471.523438 491.757812 473.851562 492.875 475.742188 C 494.152344 477.960938 496.199219 479.585938 497.960938 481.394531 C 498.859375 482.292969 499.550781 483.378906 500.261719 484.417969 C 500.464844 485.253906 500.214844 486.121094 499.960938 486.90625 C 499.175781 489.144531 497.945312 491.207031 496.5625 493.125 C 495.664062 494.433594 494.308594 495.285156 493.144531 496.324219 C 492.433594 496.984375 491.539062 497.457031 491.082031 498.339844 C 490.246094 499.707031 489.789062 501.265625 489.460938 502.808594 C 489.160156 504.273438 488.828125 505.738281 488.625 507.234375 C 488.5625 507.800781 488.355469 508.367188 488.453125 508.953125 C 489.113281 513 490.089844 516.996094 490.402344 521.09375 C 490.59375 523.941406 490.515625 526.933594 489.222656 529.546875 C 488.734375 530.445312 488.183594 531.3125 487.632812 532.191406 C 486.308594 532.460938 484.988281 532.761719 483.664062 533.027344 C 482.390625 532.144531 481.082031 531.28125 479.792969 530.414062 C 479.128906 530.082031 479.003906 529.28125 478.640625 528.699219 C 477.476562 526.226562 476.027344 523.878906 474.972656 521.359375 C 472.484375 515.566406 470.894531 509.441406 469.558594 503.296875 C 469.382812 502.574219 469.445312 501.835938 469.414062 501.109375 C 469.351562 498.589844 469.335938 496.070312 469.257812 493.550781 C 469.210938 491.425781 469.195312 489.269531 469.652344 487.191406 C 471.523438 480.183594 473.414062 473.191406 475.289062 466.183594 C 475.617188 464.800781 476.140625 463.460938 476.265625 462.042969 C 476.59375 459.476562 476.925781 456.910156 477.273438 454.34375 C 478.671875 447.039062 478.972656 439.574219 480.011719 432.21875 C 480.183594 430.820312 480.5 429.449219 480.5625 428.046875 C 480.925781 424.0625 481.191406 420.0625 481.648438 416.078125 C 482.46875 408.492188 483.335938 400.886719 484.105469 393.296875 C 482.769531 388.066406 481.335938 382.871094 479.980469 377.644531 C 478.65625 369.328125 477.398438 361 476.027344 352.703125 C 475.886719 352.71875 475.617188 352.765625 475.476562 352.796875 C 473.273438 344.96875 471.070312 337.144531 468.894531 329.316406 C 468.675781 324.863281 468.613281 320.390625 468.4375 315.933594 C 468.296875 311.476562 468.15625 307.019531 468 302.566406 C 466.550781 303.273438 465.320312 304.296875 464.03125 305.242188 C 463.730469 305.460938 463.449219 305.730469 463.070312 305.808594 C 462.296875 305.996094 461.511719 306.1875 460.738281 306.359375 C 460.28125 306.957031 459.859375 307.574219 459.417969 308.1875 C 459.164062 308.582031 458.722656 308.753906 458.347656 308.988281 C 457.828125 309.320312 457.277344 309.589844 456.789062 309.949219 C 456.457031 310.53125 456.457031 311.210938 456.378906 311.855469 C 456.203125 314.453125 456.300781 317.066406 456.457031 319.664062 C 455.859375 320.609375 454.804688 321.113281 453.765625 321.398438 C 451.511719 322.027344 449.136719 322.058594 446.914062 322.785156 C 445.96875 323.082031 445.042969 323.570312 444.394531 324.328125 C 442.898438 326.011719 442.035156 328.136719 441.402344 330.277344 C 440.554688 333.144531 440.035156 336.105469 438.949219 338.890625 C 438.191406 340.8125 437.121094 342.625 435.59375 344.023438 C 434.648438 343.300781 433.484375 342.96875 432.398438 342.527344 C 431.53125 342.167969 430.777344 341.585938 430.175781 340.875 C 429.105469 341.316406 428.035156 341.742188 426.964844 342.183594 C 425.738281 341.097656 424.539062 339.945312 423.328125 338.859375 C 421.785156 341.300781 418.824219 342.246094 417.125 344.527344 C 415.425781 343.535156 414.195312 341.914062 413.34375 340.167969 C 412.289062 340.167969 411.234375 340.199219 410.179688 340.214844 C 409.945312 340.199219 409.660156 340.261719 409.472656 340.089844 C 408.714844 339.507812 408.132812 338.703125 407.851562 337.789062 C 407.519531 336.75 407.566406 335.632812 407.628906 334.5625 C 405.914062 333.394531 403.773438 333.300781 401.882812 332.53125 C 402.765625 329.382812 403.679688 326.230469 404.574219 323.066406 C 405.394531 319.539062 406.195312 316.011719 407.015625 312.484375 C 407.125 312.027344 407.15625 311.539062 407.425781 311.132812 C 410.859375 305.902344 414.273438 300.660156 417.707031 295.433594 C 418.210938 294.707031 418.558594 293.890625 418.980469 293.101562 C 422.085938 287.117188 425.171875 281.132812 428.289062 275.167969 C 429.722656 272.867188 432.175781 271.480469 433.75 269.308594 C 435.246094 266.914062 436.429688 264.300781 438.175781 262.066406 C 438.617188 261.4375 439.074219 260.820312 439.515625 260.191406 C 437.308594 258.035156 435.105469 255.863281 432.886719 253.703125 C 432.207031 253.011719 431.421875 252.445312 430.695312 251.816406 C 428.273438 249.738281 425.972656 247.5 423.847656 245.089844 C 422.117188 242.949219 420.101562 241.074219 418.210938 239.078125 C 415.894531 236.667969 413.535156 234.289062 411.25 231.863281 C 408.355469 227.992188 405.488281 224.085938 402.605469 220.195312 C 401.804688 219.171875 401.109375 218.039062 400.199219 217.109375 C 398.214844 214.9375 396.199219 212.796875 394.246094 210.605469 C 393.253906 208.433594 392.324219 206.230469 391.363281 204.039062 C 391.035156 202.5625 390.941406 201.050781 390.625 199.554688 C 389.898438 195.996094 389.585938 192.308594 390.074219 188.6875 C 390.261719 187.445312 390.261719 186.167969 390.339844 184.910156 C 390.421875 183.855469 390.355469 182.785156 390.640625 181.761719 C 391.445312 178.25 392.5 174.707031 392.246094 171.050781 C 392.167969 169.335938 391.363281 167.808594 390.71875 166.265625 C 388.972656 162.28125 386.941406 158.425781 384.972656 154.550781 C 382.988281 150.597656 381.128906 146.566406 379.066406 142.660156 C 378.34375 141.246094 377.570312 139.84375 376.878906 138.410156 C 373.117188 127.417969 369.382812 116.398438 365.621094 105.40625 C 361.96875 96.003906 358.234375 86.605469 355.148438 77 C 354.710938 75.628906 354.238281 74.261719 353.90625 72.859375 C 352.425781 66.984375 350.945312 61.113281 349.496094 55.238281 C 349.339844 54.625 349.007812 54.058594 348.742188 53.476562 C 347.59375 51.050781 346.457031 48.625 345.324219 46.199219 C 344.882812 45.222656 344.144531 44.4375 343.484375 43.632812 C 342.128906 42.105469 340.554688 40.546875 338.476562 40.136719 C 336.980469 40.214844 335.484375 40.4375 333.972656 40.515625 C 332.128906 39.933594 330.320312 39.242188 328.476562 38.625 C 325.785156 37.917969 322.980469 38.738281 320.289062 38.183594 C 320.070312 37.679688 319.847656 37.175781 319.644531 36.65625 C 320.492188 35.632812 321.847656 35.273438 323.125 35.195312 C 325.027344 35.082031 326.933594 35.335938 328.839844 35.398438 C 328.839844 35.050781 328.839844 34.691406 328.855469 34.34375 C 327.3125 33.398438 325.753906 32.5 324.195312 31.570312 C 323.546875 31.179688 322.761719 31.082031 322.003906 31.132812 C 318.839844 31.414062 315.945312 33.148438 312.730469 33.097656 C 311.644531 33.113281 310.605469 32.691406 309.820312 31.949219 C 309.960938 31.605469 310.101562 31.242188 310.226562 30.878906 C 312.574219 30.925781 315.09375 30.800781 317.0625 29.367188 C 315.109375 28.46875 313 27.996094 311.09375 27.019531 L 311.09375 25.527344 C 313.25 26.011719 315.390625 26.566406 317.550781 27.019531 C 317.1875 26.15625 316.449219 25.527344 315.976562 24.722656 Z M 315.976562 24.722656 " fill-opacity="1" fill-rule="nonzero"/></g><path fill="#000000" d="M 98.308594 339.941406 L 89.070312 339.941406 C 88.765625 339.941406 88.472656 340 88.191406 340.117188 C 87.910156 340.234375 87.664062 340.398438 87.449219 340.617188 C 87.234375 340.832031 87.066406 341.078125 86.949219 341.359375 C 86.835938 341.640625 86.777344 341.933594 86.777344 342.238281 C 86.777344 342.542969 86.835938 342.835938 86.949219 343.117188 C 87.066406 343.398438 87.234375 343.644531 87.449219 343.859375 C 87.664062 344.074219 87.910156 344.242188 88.191406 344.359375 C 88.472656 344.476562 88.765625 344.53125 89.070312 344.53125 L 98.308594 344.53125 C 98.613281 344.53125 98.90625 344.476562 99.1875 344.359375 C 99.46875 344.242188 99.714844 344.074219 99.929688 343.859375 C 100.144531 343.644531 100.3125 343.398438 100.425781 343.117188 C 100.542969 342.835938 100.601562 342.542969 100.601562 342.238281 C 100.601562 341.933594 100.542969 341.640625 100.425781 341.359375 C 100.3125 341.078125 100.144531 340.832031 99.929688 340.617188 C 99.714844 340.398438 99.46875 340.234375 99.1875 340.117188 C 98.90625 340 98.613281 339.941406 98.308594 339.941406 Z M 98.308594 339.941406 " fill-opacity="1" fill-rule="nonzero"/><path fill="#000000" d="M 91.429688 339.941406 L 89.070312 339.941406 C 88.765625 339.941406 88.472656 340 88.191406 340.117188 C 87.910156 340.234375 87.664062 340.398438 87.449219 340.617188 C 87.234375 340.832031 87.066406 341.078125 86.949219 341.359375 C 86.835938 341.640625 86.777344 341.933594 86.777344 342.238281 C 86.777344 342.542969 86.835938 342.835938 86.949219 343.117188 C 87.066406 343.398438 87.234375 343.644531 87.449219 343.859375 C 87.664062 344.074219 87.910156 344.242188 88.191406 344.359375 C 88.472656 344.476562 88.765625 344.53125 89.070312 344.53125 L 91.429688 344.53125 C 91.386719 343.777344 91.363281 343.019531 91.363281 342.238281 C 91.363281 341.457031 91.386719 340.699219 91.429688 339.941406 Z M 91.429688 339.941406 " fill-opacity="1" fill-rule="nonzero"/><path fill="#000000" d="M 229.871094 281.539062 C 226.136719 277.210938 222.039062 273.261719 217.570312 269.695312 C 213.105469 266.125 208.351562 263 203.304688 260.316406 C 198.257812 257.632812 193.007812 255.433594 187.558594 253.722656 C 182.105469 252.015625 176.539062 250.820312 170.867188 250.144531 C 163.535156 249.269531 156.207031 249.269531 148.878906 250.144531 C 144.328125 250.679688 139.84375 251.546875 135.425781 252.75 C 131.003906 253.953125 126.699219 255.480469 122.507812 257.332031 C 118.316406 259.179688 114.285156 261.332031 110.417969 263.785156 C 106.546875 266.238281 102.882812 268.96875 99.421875 271.96875 C 96 274.910156 92.820312 278.09375 89.882812 281.515625 C 88.921875 282.628906 87.984375 283.761719 87.074219 284.917969 C 86.167969 286.074219 85.285156 287.253906 84.433594 288.449219 C 83.578125 289.648438 82.753906 290.867188 81.960938 292.105469 C 81.164062 293.34375 80.398438 294.597656 79.664062 295.871094 C 78.929688 297.144531 78.222656 298.4375 77.550781 299.746094 C 76.875 301.050781 76.234375 302.375 75.621094 303.714844 C 75.011719 305.050781 74.433594 306.402344 73.886719 307.769531 C 73.339844 309.136719 72.824219 310.511719 72.34375 311.902344 C 71.863281 313.292969 71.414062 314.695312 71 316.105469 C 70.585938 317.519531 70.207031 318.9375 69.859375 320.367188 C 69.511719 321.796875 69.199219 323.234375 68.921875 324.679688 C 68.640625 326.125 68.398438 327.574219 68.1875 329.03125 C 67.980469 330.488281 67.804688 331.949219 67.664062 333.414062 C 67.523438 334.878906 67.417969 336.34375 67.347656 337.816406 C 67.277344 339.285156 67.242188 340.753906 67.242188 342.226562 C 67.242188 343.699219 67.277344 345.167969 67.347656 346.636719 C 67.417969 348.109375 67.519531 349.574219 67.660156 351.039062 C 67.800781 352.503906 67.972656 353.964844 68.183594 355.421875 C 68.390625 356.878906 68.636719 358.328125 68.914062 359.773438 C 69.191406 361.21875 69.503906 362.65625 69.847656 364.085938 C 70.195312 365.515625 70.574219 366.9375 70.988281 368.347656 C 71.402344 369.761719 71.851562 371.160156 72.332031 372.550781 C 72.8125 373.941406 73.324219 375.320312 73.871094 376.6875 C 74.417969 378.054688 74.996094 379.40625 75.605469 380.742188 C 76.214844 382.082031 76.859375 383.40625 77.53125 384.714844 C 78.203125 386.019531 78.910156 387.3125 79.644531 388.585938 C 80.378906 389.859375 81.144531 391.117188 81.9375 392.355469 C 82.730469 393.59375 83.554688 394.8125 84.40625 396.011719 C 85.261719 397.210938 86.140625 398.386719 87.050781 399.542969 C 87.957031 400.699219 88.894531 401.835938 89.855469 402.945312 C 90.820312 404.058594 91.808594 405.148438 92.820312 406.210938 C 93.835938 407.277344 94.875 408.316406 95.9375 409.332031 C 97 410.347656 98.089844 411.339844 99.199219 412.300781 C 100.3125 413.265625 101.445312 414.203125 102.597656 415.113281 C 103.753906 416.023438 104.929688 416.90625 106.128906 417.757812 C 107.324219 418.613281 108.542969 419.4375 109.777344 420.230469 C 111.015625 421.027344 112.269531 421.792969 113.542969 422.53125 C 114.816406 423.265625 116.105469 423.96875 117.414062 424.644531 C 118.71875 425.320312 120.039062 425.960938 121.378906 426.574219 C 122.714844 427.183594 124.066406 427.765625 125.429688 428.3125 C 126.796875 428.859375 128.171875 429.375 129.5625 429.855469 C 130.949219 430.335938 132.351562 430.785156 133.761719 431.199219 C 135.171875 431.613281 136.589844 431.996094 138.019531 432.34375 C 139.449219 432.6875 140.882812 433 142.328125 433.28125 C 143.769531 433.558594 145.21875 433.804688 146.675781 434.011719 C 148.128906 434.222656 149.589844 434.398438 151.054688 434.539062 C 152.515625 434.679688 153.980469 434.78125 155.449219 434.851562 C 156.917969 434.921875 158.386719 434.957031 159.859375 434.960938 C 161.328125 434.960938 162.796875 434.925781 164.265625 434.855469 C 165.734375 434.785156 167.199219 434.679688 168.664062 434.539062 C 170.128906 434.402344 171.585938 434.226562 173.042969 434.015625 C 174.496094 433.808594 175.945312 433.566406 177.390625 433.285156 C 178.832031 433.007812 180.269531 432.695312 181.699219 432.347656 C 183.125 432.003906 184.546875 431.621094 185.957031 431.207031 C 187.367188 430.792969 188.765625 430.34375 190.15625 429.863281 C 191.546875 429.382812 192.921875 428.871094 194.289062 428.324219 C 195.652344 427.777344 197.003906 427.199219 198.339844 426.585938 C 199.679688 425.976562 201 425.332031 202.308594 424.660156 C 203.613281 423.984375 204.902344 423.28125 206.175781 422.542969 C 207.449219 421.808594 208.707031 421.042969 209.941406 420.25 C 211.179688 419.453125 212.394531 418.628906 213.59375 417.777344 C 214.792969 416.921875 215.96875 416.039062 217.125 415.132812 C 218.277344 414.222656 219.414062 413.285156 220.523438 412.324219 C 221.636719 411.359375 222.722656 410.371094 223.785156 409.355469 C 224.851562 408.339844 225.890625 407.300781 226.90625 406.234375 C 227.917969 405.171875 228.90625 404.082031 229.871094 402.96875 C 230.832031 401.859375 231.769531 400.722656 232.679688 399.566406 C 233.585938 398.410156 234.46875 397.234375 235.320312 396.035156 C 236.175781 394.835938 236.996094 393.617188 237.792969 392.382812 C 238.585938 391.144531 239.351562 389.886719 240.089844 388.613281 C 240.824219 387.339844 241.527344 386.046875 242.203125 384.742188 C 242.875 383.433594 243.515625 382.109375 244.128906 380.769531 C 244.738281 379.433594 245.316406 378.082031 245.863281 376.714844 C 246.410156 375.347656 246.925781 373.972656 247.40625 372.582031 C 247.886719 371.191406 248.335938 369.789062 248.75 368.378906 C 249.164062 366.964844 249.542969 365.546875 249.890625 364.113281 C 250.238281 362.683594 250.550781 361.25 250.828125 359.804688 C 251.105469 358.359375 251.351562 356.90625 251.558594 355.453125 C 251.769531 353.996094 251.945312 352.535156 252.082031 351.070312 C 252.222656 349.605469 252.328125 348.136719 252.398438 346.667969 C 252.46875 345.199219 252.503906 343.726562 252.503906 342.257812 C 252.503906 340.785156 252.46875 339.316406 252.398438 337.84375 C 252.328125 336.375 252.226562 334.910156 252.085938 333.445312 C 251.945312 331.980469 251.769531 330.519531 251.5625 329.0625 C 251.351562 327.605469 251.109375 326.15625 250.832031 324.710938 C 250.554688 323.265625 250.242188 321.828125 249.894531 320.398438 C 249.546875 318.96875 249.167969 317.546875 248.753906 316.136719 C 248.339844 314.722656 247.894531 313.324219 247.410156 311.933594 C 246.929688 310.542969 246.417969 309.164062 245.871094 307.796875 C 245.324219 306.433594 244.746094 305.078125 244.136719 303.742188 C 243.527344 302.402344 242.882812 301.078125 242.210938 299.773438 C 241.535156 298.464844 240.832031 297.171875 240.097656 295.898438 C 239.363281 294.625 238.597656 293.367188 237.804688 292.128906 C 237.007812 290.890625 236.183594 289.675781 235.332031 288.476562 C 234.480469 287.277344 233.597656 286.097656 232.691406 284.941406 C 231.78125 283.785156 230.847656 282.652344 229.882812 281.539062 Z M 89.070312 339.941406 L 91.429688 339.941406 C 91.480469 338.464844 91.578125 336.988281 91.722656 335.515625 C 91.867188 334.042969 92.058594 332.574219 92.300781 331.113281 C 92.539062 329.65625 92.828125 328.203125 93.160156 326.761719 C 93.496094 325.320312 93.875 323.890625 94.300781 322.472656 C 94.726562 321.054688 95.199219 319.652344 95.714844 318.269531 C 96.234375 316.882812 96.792969 315.511719 97.402344 314.164062 C 98.007812 312.8125 98.65625 311.484375 99.347656 310.175781 C 100.039062 308.867188 100.773438 307.582031 101.546875 306.320312 C 102.320312 305.0625 103.136719 303.828125 103.992188 302.621094 C 104.84375 301.410156 105.738281 300.234375 106.667969 299.082031 C 107.601562 297.933594 108.566406 296.8125 109.570312 295.726562 C 110.574219 294.640625 111.613281 293.585938 112.683594 292.566406 C 113.753906 291.546875 114.859375 290.5625 115.992188 289.613281 C 117.128906 288.664062 118.292969 287.753906 119.488281 286.882812 C 120.679688 286.007812 121.902344 285.175781 123.152344 284.382812 C 124.398438 283.589844 125.671875 282.835938 126.96875 282.125 C 128.265625 281.414062 129.582031 280.746094 130.921875 280.117188 C 132.265625 279.492188 133.621094 278.910156 135 278.375 C 136.378906 277.835938 137.773438 277.34375 139.179688 276.898438 C 140.589844 276.449219 142.011719 276.046875 143.449219 275.691406 C 144.882812 275.339844 146.332031 275.03125 147.785156 274.769531 C 149.242188 274.507812 150.703125 274.292969 152.171875 274.125 C 153.640625 273.960938 155.117188 273.839844 156.59375 273.769531 C 158.070312 273.699219 159.546875 273.675781 161.027344 273.699219 C 162.503906 273.726562 163.980469 273.796875 165.453125 273.917969 C 166.929688 274.039062 168.398438 274.207031 169.859375 274.421875 C 171.324219 274.636719 172.777344 274.902344 174.222656 275.210938 C 175.667969 275.519531 177.101562 275.878906 178.527344 276.28125 C 179.949219 276.683594 181.359375 277.132812 182.75 277.625 C 184.144531 278.121094 185.523438 278.660156 186.878906 279.242188 C 188.238281 279.828125 189.578125 280.453125 190.898438 281.125 C 192.214844 281.792969 193.511719 282.507812 194.78125 283.261719 C 196.054688 284.015625 197.300781 284.808594 198.523438 285.644531 C 199.742188 286.480469 200.9375 287.355469 202.101562 288.265625 C 203.265625 289.179688 204.398438 290.128906 205.5 291.113281 C 206.605469 292.101562 207.671875 293.121094 208.710938 294.175781 C 209.746094 295.230469 210.75 296.320312 211.714844 297.4375 C 212.683594 298.558594 213.609375 299.710938 214.503906 300.890625 C 215.394531 302.070312 216.246094 303.277344 217.0625 304.515625 C 217.875 305.75 218.648438 307.011719 219.378906 308.296875 C 220.113281 309.582031 220.804688 310.890625 221.449219 312.222656 C 222.097656 313.550781 222.703125 314.902344 223.261719 316.273438 C 223.820312 317.640625 224.335938 319.027344 224.808594 320.429688 C 225.277344 321.835938 225.703125 323.25 226.082031 324.683594 C 226.460938 326.113281 226.792969 327.554688 227.078125 329.007812 C 227.363281 330.457031 227.601562 331.917969 227.792969 333.386719 C 227.984375 334.851562 228.128906 336.324219 228.222656 337.800781 C 228.316406 339.28125 228.367188 340.757812 228.367188 342.238281 C 228.367188 343.71875 228.316406 345.195312 228.222656 346.671875 C 228.128906 348.152344 227.984375 349.621094 227.792969 351.089844 C 227.601562 352.558594 227.363281 354.019531 227.078125 355.46875 C 226.792969 356.921875 226.460938 358.363281 226.082031 359.792969 C 225.703125 361.226562 225.277344 362.640625 224.808594 364.046875 C 224.335938 365.449219 223.820312 366.835938 223.261719 368.203125 C 222.703125 369.574219 222.097656 370.925781 221.449219 372.253906 C 220.804688 373.585938 220.113281 374.894531 219.378906 376.179688 C 218.648438 377.464844 217.875 378.726562 217.0625 379.960938 C 216.246094 381.199219 215.394531 382.40625 214.503906 383.585938 C 213.609375 384.765625 212.683594 385.917969 211.714844 387.039062 C 210.75 388.15625 209.746094 389.246094 208.710938 390.300781 C 207.671875 391.355469 206.605469 392.375 205.5 393.363281 C 204.398438 394.347656 203.265625 395.296875 202.101562 396.210938 C 200.9375 397.121094 199.742188 397.996094 198.523438 398.832031 C 197.300781 399.667969 196.054688 400.460938 194.78125 401.214844 C 193.511719 401.96875 192.214844 402.683594 190.898438 403.351562 C 189.578125 404.023438 188.238281 404.648438 186.878906 405.234375 C 185.523438 405.816406 184.144531 406.355469 182.75 406.851562 C 181.359375 407.34375 179.949219 407.792969 178.527344 408.195312 C 177.101562 408.597656 175.667969 408.953125 174.222656 409.265625 C 172.777344 409.574219 171.324219 409.835938 169.859375 410.054688 C 168.398438 410.269531 166.929688 410.4375 165.453125 410.558594 C 163.980469 410.679688 162.503906 410.75 161.027344 410.777344 C 159.546875 410.800781 158.070312 410.777344 156.59375 410.707031 C 155.117188 410.636719 153.640625 410.515625 152.171875 410.351562 C 150.703125 410.183594 149.242188 409.96875 147.785156 409.707031 C 146.332031 409.445312 144.882812 409.136719 143.449219 408.785156 C 142.011719 408.429688 140.589844 408.027344 139.179688 407.578125 C 137.773438 407.132812 136.378906 406.640625 135 406.101562 C 133.621094 405.566406 132.265625 404.984375 130.921875 404.355469 C 129.582031 403.730469 128.265625 403.0625 126.96875 402.351562 C 125.671875 401.640625 124.398438 400.886719 123.152344 400.09375 C 121.902344 399.300781 120.679688 398.46875 119.488281 397.59375 C 118.292969 396.722656 117.128906 395.8125 115.992188 394.863281 C 114.859375 393.914062 113.753906 392.929688 112.683594 391.910156 C 111.613281 390.890625 110.574219 389.835938 109.570312 388.75 C 108.566406 387.664062 107.601562 386.542969 106.667969 385.394531 C 105.738281 384.242188 104.84375 383.066406 103.992188 381.855469 C 103.136719 380.648438 102.320312 379.414062 101.546875 378.15625 C 100.773438 376.894531 100.039062 375.609375 99.347656 374.300781 C 98.65625 372.992188 98.007812 371.664062 97.402344 370.3125 C 96.792969 368.964844 96.234375 367.59375 95.714844 366.207031 C 95.199219 364.820312 94.726562 363.421875 94.300781 362.003906 C 93.875 360.585938 93.496094 359.15625 93.160156 357.714844 C 92.828125 356.273438 92.539062 354.820312 92.300781 353.359375 C 92.058594 351.902344 91.867188 350.433594 91.722656 348.960938 C 91.578125 347.488281 91.480469 346.011719 91.429688 344.53125 L 89.070312 344.53125 C 88.765625 344.53125 88.472656 344.476562 88.191406 344.359375 C 87.910156 344.242188 87.664062 344.074219 87.449219 343.859375 C 87.234375 343.644531 87.066406 343.398438 86.949219 343.117188 C 86.835938 342.835938 86.777344 342.542969 86.777344 342.238281 C 86.777344 341.933594 86.835938 341.640625 86.949219 341.359375 C 87.066406 341.078125 87.234375 340.832031 87.449219 340.617188 C 87.664062 340.398438 87.910156 340.234375 88.191406 340.117188 C 88.472656 340 88.765625 339.941406 89.070312 339.941406 Z M 89.070312 339.941406 " fill-opacity="1" fill-rule="nonzero"/><path fill="#000000" d="M 174.226562 342.238281 C 174.222656 343.183594 174.132812 344.117188 173.945312 345.042969 C 173.761719 345.96875 173.488281 346.867188 173.128906 347.738281 C 172.765625 348.609375 172.324219 349.4375 171.796875 350.222656 C 171.273438 351.007812 170.679688 351.734375 170.011719 352.398438 C 169.34375 353.066406 168.617188 353.660156 167.832031 354.1875 C 167.050781 354.710938 166.222656 355.152344 165.347656 355.511719 C 164.476562 355.875 163.578125 356.144531 162.65625 356.328125 C 161.730469 356.511719 160.796875 356.605469 159.851562 356.605469 C 158.910156 356.601562 157.976562 356.511719 157.050781 356.328125 C 156.125 356.140625 155.226562 355.867188 154.355469 355.507812 C 153.484375 355.144531 152.660156 354.703125 151.875 354.175781 C 151.089844 353.652344 150.367188 353.054688 149.699219 352.390625 C 149.03125 351.722656 148.4375 350.996094 147.914062 350.210938 C 147.390625 349.425781 146.949219 348.597656 146.585938 347.722656 C 146.226562 346.851562 145.953125 345.953125 145.769531 345.027344 C 145.585938 344.101562 145.496094 343.167969 145.496094 342.222656 C 145.496094 341.277344 145.589844 340.34375 145.773438 339.417969 C 145.957031 338.492188 146.230469 337.59375 146.589844 336.722656 C 146.953125 335.851562 147.394531 335.023438 147.917969 334.238281 C 148.441406 333.453125 149.039062 332.726562 149.703125 332.058594 C 150.371094 331.390625 151.097656 330.796875 151.882812 330.273438 C 152.664062 329.746094 153.492188 329.304688 154.363281 328.945312 C 155.234375 328.582031 156.132812 328.308594 157.058594 328.125 C 157.984375 327.941406 158.917969 327.847656 159.859375 327.847656 C 160.804688 327.851562 161.738281 327.945312 162.660156 328.132812 C 163.585938 328.316406 164.484375 328.589844 165.355469 328.953125 C 166.226562 329.316406 167.054688 329.757812 167.835938 330.285156 C 168.621094 330.808594 169.347656 331.40625 170.011719 332.074219 C 170.679688 332.742188 171.273438 333.46875 171.800781 334.253906 C 172.324219 335.035156 172.765625 335.867188 173.125 336.738281 C 173.488281 337.609375 173.761719 338.507812 173.945312 339.433594 C 174.128906 340.359375 174.222656 341.292969 174.226562 342.238281 Z M 174.226562 342.238281 " fill-opacity="1" fill-rule="nonzero"/><path fill="#000000" d="M 159.847656 282.9375 C 159.542969 282.9375 159.25 282.882812 158.96875 282.765625 C 158.6875 282.648438 158.441406 282.484375 158.226562 282.265625 C 158.011719 282.050781 157.84375 281.804688 157.726562 281.523438 C 157.613281 281.242188 157.554688 280.949219 157.554688 280.644531 L 157.554688 271.382812 C 157.554688 271.078125 157.613281 270.785156 157.726562 270.503906 C 157.84375 270.222656 158.011719 269.976562 158.226562 269.761719 C 158.441406 269.542969 158.6875 269.378906 158.96875 269.261719 C 159.25 269.144531 159.542969 269.085938 159.847656 269.085938 C 160.152344 269.085938 160.441406 269.144531 160.722656 269.261719 C 161.003906 269.378906 161.253906 269.542969 161.46875 269.761719 C 161.683594 269.976562 161.847656 270.222656 161.964844 270.503906 C 162.082031 270.785156 162.140625 271.078125 162.140625 271.382812 L 162.140625 280.644531 C 162.140625 280.949219 162.082031 281.242188 161.964844 281.523438 C 161.847656 281.804688 161.683594 282.050781 161.46875 282.265625 C 161.253906 282.484375 161.003906 282.648438 160.722656 282.765625 C 160.441406 282.882812 160.152344 282.9375 159.847656 282.9375 Z M 159.847656 282.9375 " fill-opacity="1" fill-rule="nonzero"/><path fill="#000000" d="M 159.847656 415.371094 C 159.542969 415.371094 159.25 415.3125 158.96875 415.195312 C 158.6875 415.078125 158.441406 414.914062 158.226562 414.699219 C 158.011719 414.484375 157.84375 414.234375 157.726562 413.953125 C 157.613281 413.671875 157.554688 413.378906 157.554688 413.074219 L 157.554688 403.8125 C 157.554688 403.507812 157.613281 403.214844 157.726562 402.933594 C 157.84375 402.652344 158.011719 402.402344 158.226562 402.1875 C 158.441406 401.972656 158.6875 401.808594 158.96875 401.691406 C 159.25 401.574219 159.542969 401.515625 159.847656 401.515625 C 160.152344 401.515625 160.441406 401.574219 160.722656 401.691406 C 161.003906 401.808594 161.253906 401.972656 161.46875 402.1875 C 161.683594 402.402344 161.847656 402.652344 161.964844 402.933594 C 162.082031 403.214844 162.140625 403.507812 162.140625 403.8125 L 162.140625 413.074219 C 162.140625 413.378906 162.082031 413.671875 161.964844 413.953125 C 161.847656 414.234375 161.683594 414.484375 161.46875 414.699219 C 161.253906 414.914062 161.003906 415.078125 160.722656 415.195312 C 160.441406 415.3125 160.152344 415.371094 159.847656 415.371094 Z M 159.847656 415.371094 " fill-opacity="1" fill-rule="nonzero"/><path fill="#000000" d="M 203.351562 300.976562 C 202.890625 300.976562 202.464844 300.847656 202.078125 300.589844 C 201.695312 300.332031 201.414062 299.988281 201.234375 299.558594 C 201.058594 299.132812 201.015625 298.691406 201.105469 298.234375 C 201.195312 297.78125 201.402344 297.386719 201.730469 297.058594 L 208.277344 290.511719 C 208.488281 290.289062 208.738281 290.117188 209.019531 289.996094 C 209.300781 289.875 209.597656 289.8125 209.90625 289.808594 C 210.210938 289.808594 210.507812 289.863281 210.792969 289.980469 C 211.078125 290.097656 211.328125 290.265625 211.546875 290.480469 C 211.761719 290.699219 211.929688 290.949219 212.046875 291.234375 C 212.164062 291.519531 212.21875 291.816406 212.21875 292.125 C 212.214844 292.433594 212.152344 292.726562 212.03125 293.011719 C 211.910156 293.292969 211.738281 293.542969 211.519531 293.753906 L 204.972656 300.304688 C 204.527344 300.753906 203.988281 300.980469 203.351562 300.976562 Z M 203.351562 300.976562 " fill-opacity="1" fill-rule="nonzero"/><path fill="#000000" d="M 109.792969 394.617188 C 109.332031 394.617188 108.90625 394.488281 108.519531 394.230469 C 108.136719 393.972656 107.855469 393.628906 107.675781 393.203125 C 107.5 392.773438 107.457031 392.332031 107.546875 391.875 C 107.636719 391.421875 107.84375 391.027344 108.171875 390.699219 L 114.714844 384.152344 C 114.929688 383.929688 115.179688 383.757812 115.460938 383.636719 C 115.742188 383.515625 116.039062 383.453125 116.347656 383.449219 C 116.652344 383.449219 116.949219 383.503906 117.234375 383.621094 C 117.519531 383.738281 117.769531 383.90625 117.988281 384.121094 C 118.203125 384.339844 118.371094 384.589844 118.488281 384.875 C 118.605469 385.160156 118.660156 385.457031 118.660156 385.765625 C 118.65625 386.074219 118.59375 386.367188 118.472656 386.652344 C 118.351562 386.933594 118.179688 387.183594 117.957031 387.394531 L 111.414062 393.945312 C 110.96875 394.394531 110.425781 394.617188 109.792969 394.617188 Z M 109.792969 394.617188 " fill-opacity="1" fill-rule="nonzero"/><path fill="#000000" d="M 230.632812 344.53125 L 221.375 344.53125 C 221.070312 344.53125 220.777344 344.476562 220.496094 344.359375 C 220.214844 344.242188 219.96875 344.074219 219.753906 343.859375 C 219.539062 343.644531 219.371094 343.398438 219.257812 343.117188 C 219.140625 342.835938 219.082031 342.542969 219.082031 342.238281 C 219.082031 341.933594 219.140625 341.640625 219.257812 341.359375 C 219.371094 341.078125 219.539062 340.832031 219.753906 340.617188 C 219.96875 340.398438 220.214844 340.234375 220.496094 340.117188 C 220.777344 340 221.070312 339.941406 221.375 339.941406 L 230.632812 339.941406 C 230.933594 339.941406 231.226562 340 231.507812 340.117188 C 231.789062 340.234375 232.039062 340.398438 232.253906 340.617188 C 232.46875 340.832031 232.632812 341.078125 232.75 341.359375 C 232.867188 341.640625 232.921875 341.933594 232.921875 342.238281 C 232.921875 342.542969 232.867188 342.835938 232.75 343.117188 C 232.632812 343.398438 232.46875 343.644531 232.253906 343.859375 C 232.039062 344.074219 231.789062 344.242188 231.507812 344.359375 C 231.226562 344.476562 230.933594 344.53125 230.632812 344.53125 Z M 230.632812 344.53125 " fill-opacity="1" fill-rule="nonzero"/><path fill="#000000" d="M 100.601562 342.238281 C 100.601562 342.542969 100.542969 342.835938 100.425781 343.117188 C 100.3125 343.398438 100.144531 343.644531 99.929688 343.859375 C 99.714844 344.074219 99.46875 344.242188 99.1875 344.359375 C 98.90625 344.476562 98.613281 344.53125 98.308594 344.53125 L 89.070312 344.53125 C 88.765625 344.53125 88.472656 344.476562 88.191406 344.359375 C 87.910156 344.242188 87.664062 344.074219 87.449219 343.859375 C 87.234375 343.644531 87.066406 343.398438 86.949219 343.117188 C 86.835938 342.835938 86.777344 342.542969 86.777344 342.238281 C 86.777344 341.933594 86.835938 341.640625 86.949219 341.359375 C 87.066406 341.078125 87.234375 340.832031 87.449219 340.617188 C 87.664062 340.398438 87.910156 340.234375 88.191406 340.117188 C 88.472656 340 88.765625 339.941406 89.070312 339.941406 L 98.308594 339.941406 C 98.613281 339.941406 98.90625 339.996094 99.191406 340.113281 C 99.472656 340.226562 99.722656 340.394531 99.9375 340.609375 C 100.152344 340.824219 100.320312 341.074219 100.433594 341.355469 C 100.550781 341.640625 100.605469 341.933594 100.601562 342.238281 Z M 100.601562 342.238281 " fill-opacity="1" fill-rule="nonzero"/><path fill="#000000" d="M 209.898438 394.617188 C 209.265625 394.617188 208.722656 394.394531 208.277344 393.945312 L 201.730469 387.394531 C 201.511719 387.183594 201.339844 386.933594 201.21875 386.652344 C 201.097656 386.367188 201.035156 386.074219 201.03125 385.765625 C 201.03125 385.457031 201.085938 385.160156 201.203125 384.875 C 201.320312 384.589844 201.484375 384.339844 201.703125 384.121094 C 201.921875 383.90625 202.171875 383.738281 202.457031 383.621094 C 202.742188 383.503906 203.039062 383.449219 203.34375 383.449219 C 203.652344 383.453125 203.949219 383.515625 204.230469 383.636719 C 204.511719 383.757812 204.761719 383.929688 204.972656 384.152344 L 211.519531 390.699219 C 211.84375 391.027344 212.054688 391.421875 212.144531 391.875 C 212.234375 392.332031 212.191406 392.773438 212.015625 393.203125 C 211.835938 393.628906 211.554688 393.972656 211.171875 394.230469 C 210.785156 394.488281 210.359375 394.617188 209.898438 394.617188 Z M 209.898438 394.617188 " fill-opacity="1" fill-rule="nonzero"/><path fill="#000000" d="M 116.335938 300.976562 C 115.703125 300.980469 115.164062 300.753906 114.714844 300.304688 L 108.171875 293.753906 C 107.964844 293.539062 107.804688 293.289062 107.691406 293.011719 C 107.582031 292.730469 107.527344 292.441406 107.53125 292.140625 C 107.53125 291.839844 107.589844 291.550781 107.707031 291.273438 C 107.824219 290.996094 107.988281 290.75 108.199219 290.539062 C 108.414062 290.324219 108.660156 290.160156 108.933594 290.042969 C 109.210938 289.929688 109.5 289.867188 109.800781 289.867188 C 110.101562 289.863281 110.394531 289.917969 110.671875 290.027344 C 110.953125 290.140625 111.199219 290.300781 111.414062 290.511719 L 117.957031 297.058594 C 118.285156 297.386719 118.496094 297.78125 118.585938 298.234375 C 118.675781 298.691406 118.632812 299.132812 118.457031 299.558594 C 118.277344 299.988281 117.996094 300.332031 117.613281 300.589844 C 117.226562 300.847656 116.800781 300.976562 116.335938 300.976562 Z M 116.335938 300.976562 " fill-opacity="1" fill-rule="nonzero"/><path fill="#000000" d="M 165.722656 333.976562 C 165.523438 333.976562 165.328125 333.949219 165.132812 333.898438 C 164.941406 333.847656 164.757812 333.773438 164.585938 333.671875 C 164.410156 333.574219 164.253906 333.453125 164.113281 333.3125 C 163.972656 333.171875 163.847656 333.015625 163.75 332.84375 C 163.648438 332.671875 163.570312 332.488281 163.515625 332.296875 C 163.464844 332.101562 163.4375 331.90625 163.433594 331.707031 C 163.429688 331.507812 163.453125 331.308594 163.503906 331.117188 C 163.554688 330.921875 163.625 330.738281 163.722656 330.5625 L 182.675781 296.601562 C 182.820312 296.332031 183.011719 296.097656 183.25 295.90625 C 183.488281 295.710938 183.757812 295.574219 184.050781 295.488281 C 184.34375 295.402344 184.644531 295.375 184.949219 295.410156 C 185.253906 295.445312 185.542969 295.535156 185.808594 295.6875 C 186.078125 295.835938 186.304688 296.03125 186.496094 296.273438 C 186.683594 296.515625 186.820312 296.785156 186.902344 297.082031 C 186.984375 297.375 187.003906 297.675781 186.964844 297.980469 C 186.925781 298.285156 186.832031 298.570312 186.675781 298.839844 L 167.726562 332.800781 C 167.523438 333.164062 167.242188 333.453125 166.882812 333.660156 C 166.527344 333.871094 166.140625 333.976562 165.722656 333.976562 Z M 165.722656 333.976562 " fill-opacity="1" fill-rule="nonzero"/><path fill="#000000" d="M 172.871094 239.0625 L 172.871094 245.785156 C 172.390625 245.695312 171.886719 245.648438 171.40625 245.578125 C 167.558594 245.132812 163.699219 244.902344 159.824219 244.890625 C 155.984375 244.898438 152.15625 245.128906 148.339844 245.578125 C 147.835938 245.648438 147.351562 245.695312 146.847656 245.785156 L 146.847656 239.0625 C 146.847656 238.757812 146.90625 238.464844 147.023438 238.183594 C 147.140625 237.902344 147.304688 237.65625 147.519531 237.4375 C 147.734375 237.222656 147.984375 237.058594 148.265625 236.941406 C 148.542969 236.824219 148.835938 236.765625 149.140625 236.765625 L 170.578125 236.765625 C 170.882812 236.765625 171.175781 236.824219 171.457031 236.941406 C 171.738281 237.058594 171.984375 237.222656 172.199219 237.4375 C 172.414062 237.65625 172.582031 237.902344 172.699219 238.183594 C 172.8125 238.464844 172.871094 238.757812 172.871094 239.0625 Z M 172.871094 239.0625 " fill-opacity="1" fill-rule="nonzero"/><path fill="#000000" d="M 182.113281 219.992188 L 182.113281 236.011719 C 182.113281 236.359375 182.078125 236.707031 182.007812 237.050781 C 181.941406 237.398438 181.839844 237.730469 181.703125 238.054688 C 181.570312 238.378906 181.40625 238.6875 181.210938 238.980469 C 181.015625 239.269531 180.792969 239.542969 180.546875 239.789062 C 180.296875 240.039062 180.027344 240.257812 179.738281 240.453125 C 179.445312 240.648438 179.136719 240.8125 178.8125 240.949219 C 178.488281 241.082031 178.15625 241.183594 177.8125 241.253906 C 177.46875 241.320312 177.121094 241.355469 176.769531 241.355469 L 142.972656 241.355469 C 142.621094 241.355469 142.273438 241.324219 141.929688 241.253906 C 141.585938 241.183594 141.25 241.082031 140.925781 240.949219 C 140.601562 240.816406 140.292969 240.652344 140 240.457031 C 139.707031 240.261719 139.4375 240.039062 139.1875 239.792969 C 138.941406 239.542969 138.71875 239.273438 138.519531 238.980469 C 138.324219 238.691406 138.160156 238.382812 138.023438 238.058594 C 137.886719 237.734375 137.785156 237.398438 137.714844 237.054688 C 137.644531 236.710938 137.609375 236.363281 137.609375 236.011719 L 137.609375 219.992188 C 137.609375 219.640625 137.644531 219.292969 137.714844 218.949219 C 137.785156 218.601562 137.886719 218.269531 138.023438 217.945312 C 138.160156 217.621094 138.324219 217.3125 138.519531 217.019531 C 138.71875 216.726562 138.941406 216.457031 139.1875 216.210938 C 139.4375 215.960938 139.707031 215.742188 140 215.546875 C 140.292969 215.351562 140.601562 215.1875 140.925781 215.050781 C 141.25 214.917969 141.585938 214.816406 141.929688 214.746094 C 142.273438 214.679688 142.621094 214.644531 142.972656 214.644531 L 176.769531 214.644531 C 177.121094 214.644531 177.46875 214.679688 177.8125 214.75 C 178.15625 214.816406 178.488281 214.917969 178.8125 215.054688 C 179.136719 215.1875 179.445312 215.351562 179.738281 215.546875 C 180.027344 215.742188 180.296875 215.964844 180.546875 216.210938 C 180.792969 216.460938 181.015625 216.730469 181.210938 217.023438 C 181.40625 217.3125 181.570312 217.621094 181.703125 217.945312 C 181.839844 218.269531 181.941406 218.605469 182.007812 218.949219 C 182.078125 219.292969 182.113281 219.640625 182.113281 219.992188 Z M 182.113281 219.992188 " fill-opacity="1" fill-rule="nonzero"/><path fill="#000000" d="M 243.011719 267.703125 C 243.011719 268.882812 242.785156 270.019531 242.332031 271.109375 C 241.878906 272.199219 241.234375 273.160156 240.394531 273.988281 L 234.480469 279.910156 C 234.113281 279.453125 233.746094 278.992188 233.355469 278.554688 C 230.25 274.957031 226.902344 271.597656 223.316406 268.480469 C 222.855469 268.089844 222.398438 267.703125 221.9375 267.335938 L 227.855469 261.414062 C 228.6875 260.578125 229.644531 259.933594 230.734375 259.480469 C 231.824219 259.023438 232.957031 258.796875 234.136719 258.796875 L 234.160156 258.796875 C 235.335938 258.804688 236.46875 259.035156 237.558594 259.488281 C 238.644531 259.941406 239.605469 260.582031 240.441406 261.414062 C 241.273438 262.246094 241.914062 263.207031 242.359375 264.300781 C 242.804688 265.390625 243.019531 266.523438 243.011719 267.703125 Z M 243.011719 267.703125 " fill-opacity="1" fill-rule="nonzero"/><path fill="#000000" d="M 97.804688 267.359375 C 97.347656 267.703125 96.886719 268.089844 96.429688 268.480469 C 92.832031 271.566406 89.492188 274.910156 86.410156 278.511719 C 85.996094 278.96875 85.605469 279.453125 85.238281 279.910156 L 79.324219 273.988281 C 78.488281 273.152344 77.839844 272.1875 77.386719 271.09375 C 76.933594 270 76.710938 268.863281 76.710938 267.679688 C 76.699219 266.503906 76.914062 265.375 77.359375 264.285156 C 77.808594 263.199219 78.445312 262.242188 79.277344 261.414062 C 80.113281 260.582031 81.078125 259.941406 82.164062 259.488281 C 83.25 259.035156 84.382812 258.804688 85.5625 258.796875 L 85.585938 258.796875 C 86.761719 258.796875 87.898438 259.023438 88.988281 259.476562 C 90.078125 259.929688 91.035156 260.574219 91.867188 261.414062 Z M 97.804688 267.359375 " fill-opacity="1" fill-rule="nonzero"/></svg>