<svg xmlns="http://www.w3.org/2000/svg" xmlns:xlink="http://www.w3.org/1999/xlink" width="1024" zoomAndPan="magnify" viewBox="0 0 768 576" height="768" preserveAspectRatio="xMidYMid meet" version="1.0"><defs><clipPath id="6ce96f730d"><path d="M 0 26.398438 L 768 26.398438 L 768 461 L 0 461 Z M 0 26.398438 " clip-rule="nonzero"/></clipPath><clipPath id="0b824244c0"><path d="M 84 498 L 162 498 L 162 549.898438 L 84 549.898438 Z M 84 498 " clip-rule="nonzero"/></clipPath><clipPath id="5b835129ee"><path d="M 208 498 L 293 498 L 293 549.898438 L 208 549.898438 Z M 208 498 " clip-rule="nonzero"/></clipPath><clipPath id="6ea219dc3d"><path d="M 330 498 L 420 498 L 420 549.898438 L 330 549.898438 Z M 330 498 " clip-rule="nonzero"/></clipPath><clipPath id="f65a2481f7"><path d="M 467 498 L 554 498 L 554 549.898438 L 467 549.898438 Z M 467 498 " clip-rule="nonzero"/></clipPath><clipPath id="858986d8fb"><path d="M 591 498 L 678 498 L 678 549.898438 L 591 549.898438 Z M 591 498 " clip-rule="nonzero"/></clipPath></defs><path fill="#000000" d="M 48.359375 336.082031 L 45.703125 343.632812 L 84.050781 343.632812 L 86.40625 336.082031 L 77.566406 335.09375 L 85.695312 309.820312 L 76.152344 309.820312 L 54.148438 312.765625 L 55.667969 319.566406 L 63.535156 318.472656 L 57.847656 335.09375 L 48.359375 336.082031 " fill-opacity="1" fill-rule="nonzero"/><path fill="#000000" d="M 219.671875 330.933594 L 242.71875 328.988281 L 254.632812 324.25 L 255.886719 315.160156 L 244.003906 309.820312 L 215.632812 309.820312 L 201.976562 315.160156 L 200.753906 321.425781 L 218.3125 321.425781 L 220.792969 317.953125 L 233.796875 317.953125 L 236.082031 318.902344 L 235.769531 320.855469 L 233.578125 321.664062 L 210.589844 323.578125 L 198.722656 327.972656 L 195.652344 343.632812 L 251.972656 343.632812 L 253.628906 331.570312 L 235.976562 331.570312 L 233.523438 335.09375 L 217.136719 335.09375 L 217.722656 331.765625 L 219.671875 330.933594 " fill-opacity="1" fill-rule="nonzero"/><path fill="#000000" d="M 375.804688 335.09375 L 373.941406 331.515625 L 356.191406 331.515625 L 356.007812 337.761719 L 369.484375 343.632812 L 398.414062 343.632812 L 411.984375 337.761719 L 411.71875 328.503906 L 402.75 324.785156 L 410.734375 317.246094 L 410.519531 309.820312 L 358.6875 309.820312 L 358.367188 321.425781 L 375.925781 321.425781 L 377.824219 317.953125 L 391.390625 317.953125 L 386.910156 322.820312 L 379.582031 322.820312 L 379.546875 329.183594 L 389.773438 329.183594 L 392.050781 330.152344 L 392.085938 334.0625 L 389.714844 335.09375 L 375.804688 335.09375 " fill-opacity="1" fill-rule="nonzero"/><path fill="#000000" d="M 530.179688 326.132812 L 542.308594 319.707031 L 543.390625 326.132812 Z M 539.039062 343.632812 L 573.445312 343.632812 L 572.042969 336.472656 L 564.601562 335.492188 L 564.109375 332.890625 L 571.425781 332.890625 L 570.097656 326.132812 L 562.824219 326.132812 L 559.738281 309.820312 L 540.730469 309.820312 L 512.527344 326.761719 L 513.363281 332.890625 L 544.53125 332.890625 L 544.972656 335.492188 L 537.886719 336.472656 L 539.039062 343.632812 " fill-opacity="1" fill-rule="nonzero"/><path fill="#000000" d="M 693.332031 335.09375 L 690.277344 331.515625 L 672.53125 331.515625 L 674.425781 337.761719 L 689.859375 343.632812 L 718.789062 343.632812 L 730.402344 337.761719 L 725.890625 325.3125 L 713.328125 320.953125 L 688.929688 320.953125 L 687.941406 317.90625 L 722.359375 317.90625 L 719.429688 309.820312 L 666.117188 309.820312 L 671.878906 328.746094 L 705.65625 328.746094 L 707.734375 329.574219 L 709.269531 334.0625 L 707.238281 335.09375 L 693.332031 335.09375 " fill-opacity="1" fill-rule="nonzero"/><g clip-path="url(#6ce96f730d)"><path fill="#000000" d="M 636.59375 360.3125 L 550.359375 26.484375 L 539.628906 26.484375 L 620.296875 360.3125 L 473.632812 360.3125 L 443.027344 26.484375 L 432.296875 26.484375 L 457.332031 360.3125 L 310.667969 360.3125 L 335.703125 26.484375 L 324.96875 26.484375 L 294.367188 360.3125 L 147.703125 360.3125 L 228.375 26.484375 L 217.640625 26.484375 L 131.40625 360.3125 L 0 360.3125 L 0 369.027344 L 129.15625 369.027344 L 105.582031 460.261719 L 123.546875 460.261719 L 145.59375 369.027344 L 293.570312 369.027344 L 285.207031 460.261719 L 303.171875 460.261719 L 310.011719 369.027344 L 457.988281 369.027344 L 464.828125 460.261719 L 482.796875 460.261719 L 474.425781 369.027344 L 622.40625 369.027344 L 644.453125 460.261719 L 662.417969 460.261719 L 638.84375 369.027344 L 768 369.027344 L 768 360.3125 L 636.59375 360.3125 " fill-opacity="1" fill-rule="nonzero"/></g><path fill="#000000" d="M 121.375 291.269531 L 40.785156 291.269531 L 37.941406 298.792969 L 119.199219 298.792969 L 121.375 291.269531 " fill-opacity="1" fill-rule="nonzero"/><path fill="#000000" d="M 272.835938 291.269531 L 192.246094 291.269531 L 190.65625 298.792969 L 271.914062 298.792969 L 272.835938 291.269531 " fill-opacity="1" fill-rule="nonzero"/><path fill="#000000" d="M 424.296875 291.269531 L 343.703125 291.269531 L 343.371094 298.792969 L 424.628906 298.792969 L 424.296875 291.269531 " fill-opacity="1" fill-rule="nonzero"/><path fill="#000000" d="M 575.753906 291.269531 L 495.164062 291.269531 L 496.085938 298.792969 L 577.34375 298.792969 L 575.753906 291.269531 " fill-opacity="1" fill-rule="nonzero"/><path fill="#000000" d="M 730.058594 298.792969 L 727.214844 291.269531 L 646.621094 291.269531 L 648.796875 298.792969 L 730.058594 298.792969 " fill-opacity="1" fill-rule="nonzero"/><g clip-path="url(#0b824244c0)"><path fill="#000000" d="M 111.472656 498.5 L 93.625 506.554688 L 90.074219 520.308594 L 102.367188 527.5 L 130.269531 530.457031 L 132.253906 531.71875 L 131.488281 535.230469 L 128.144531 536.800781 L 110.636719 536.800781 L 109.539062 531.347656 L 87.21875 531.347656 L 84.761719 540.867188 L 99.664062 549.851562 L 136.167969 549.851562 L 155.289062 540.867188 L 158.230469 525.945312 L 145.730469 519.289062 L 117.945312 516.390625 L 115.640625 515.160156 L 116.347656 512.203125 L 119.730469 510.769531 L 136.023438 510.769531 L 137.230469 516.019531 L 159.246094 516.019531 L 161.128906 506.554688 L 146.953125 498.5 L 111.472656 498.5 " fill-opacity="1" fill-rule="nonzero"/></g><g clip-path="url(#5b835129ee)"><path fill="#000000" d="M 208.421875 519.144531 L 225.90625 519.144531 L 229.519531 509.980469 L 238.535156 509.980469 L 235.078125 536.800781 L 224.675781 538.304688 L 223.085938 549.851562 L 268.929688 549.851562 L 270.070312 538.304688 L 259.902344 536.800781 L 262.785156 509.980469 L 271.808594 509.980469 L 273.257812 519.144531 L 290.617188 519.144531 L 292.3125 498.5 L 211.613281 498.5 L 208.421875 519.144531 " fill-opacity="1" fill-rule="nonzero"/></g><g clip-path="url(#6ea219dc3d)"><path fill="#000000" d="M 366.703125 523.304688 L 372.039062 511.914062 L 377.253906 523.304688 Z M 409.191406 536.800781 L 392.703125 498.5 L 345.859375 498.5 L 345.492188 509.335938 L 353.0625 510.769531 L 340.113281 536.800781 L 330.8125 538.304688 L 330.28125 549.851562 L 366.667969 549.851562 L 366.839844 538.304688 L 360.984375 536.800781 L 363.105469 532.167969 L 381.140625 532.167969 L 383.289062 536.800781 L 376.921875 538.304688 L 376.851562 549.851562 L 419.910156 549.851562 L 419.550781 538.304688 L 409.191406 536.800781 " fill-opacity="1" fill-rule="nonzero"/></g><g clip-path="url(#f65a2481f7)"><path fill="#000000" d="M 518.753906 519.003906 L 501.988281 519.003906 L 501.132812 510.769531 L 517.777344 510.769531 L 520.761719 512.203125 L 521.414062 517.546875 Z M 545.695312 536.800781 L 535.382812 527.789062 L 546.285156 521.628906 L 544.140625 506.554688 L 527.339844 498.5 L 467.050781 498.5 L 467.855469 509.335938 L 476.871094 510.769531 L 479.011719 536.800781 L 470.007812 538.304688 L 470.867188 549.851562 L 514.414062 549.851562 L 513.121094 538.304688 L 503.839844 536.800781 L 503.050781 529.269531 L 509.25 529.269531 L 530.898438 549.851562 L 553.945312 549.851562 L 552.15625 537.550781 L 545.695312 536.800781 " fill-opacity="1" fill-rule="nonzero"/></g><g clip-path="url(#858986d8fb)"><path fill="#000000" d="M 660.269531 519.144531 L 677.625 519.144531 L 672.296875 498.5 L 591.597656 498.5 L 595.4375 519.144531 L 612.910156 519.144531 L 613.410156 509.980469 L 622.429688 509.980469 L 628.101562 536.800781 L 618.210938 538.304688 L 620.550781 549.851562 L 666.402344 549.851562 L 663.605469 538.304688 L 652.921875 536.800781 L 646.679688 509.980469 L 655.695312 509.980469 L 660.269531 519.144531 " fill-opacity="1" fill-rule="nonzero"/></g></svg>