<svg xmlns="http://www.w3.org/2000/svg" xmlns:xlink="http://www.w3.org/1999/xlink" width="1024" zoomAndPan="magnify" viewBox="0 0 768 576" height="768" preserveAspectRatio="xMidYMid meet" version="1.0"><defs><clipPath id="39e3ce8e0d"><path d="M 425.425781 211 L 562 211 L 562 392 L 425.425781 392 Z M 425.425781 211 " clip-rule="nonzero"/></clipPath><clipPath id="2717184fc4"><path d="M 425.425781 443 L 521 443 L 521 500 L 425.425781 500 Z M 425.425781 443 " clip-rule="nonzero"/></clipPath><clipPath id="238a284c2f"><path d="M 425.425781 463 L 498 463 L 498 498 L 425.425781 498 Z M 425.425781 463 " clip-rule="nonzero"/></clipPath><clipPath id="008bf2d73d"><path d="M 683 447 L 741.925781 447 L 741.925781 543.703125 L 683 543.703125 Z M 683 447 " clip-rule="nonzero"/></clipPath><clipPath id="c0971f61c6"><path d="M 519 20.203125 L 721 20.203125 L 721 205 L 519 205 Z M 519 20.203125 " clip-rule="nonzero"/></clipPath><clipPath id="368af58c06"><path d="M 425.425781 359 L 501 359 L 501 440 L 425.425781 440 Z M 425.425781 359 " clip-rule="nonzero"/></clipPath></defs><path fill="#000000" d="M 343.804688 166.824219 C 342.238281 165.742188 338.316406 170.742188 336.664062 173.332031 C 335.007812 175.917969 334.109375 176.65625 334.109375 174.671875 C 334.109375 172.6875 337.296875 162.164062 337.683594 158.339844 C 338.066406 154.511719 337.421875 154.253906 336.019531 154.636719 C 334.617188 155.019531 330.40625 169.699219 330.40625 169.699219 C 330.40625 169.699219 331.976562 157.257812 332.132812 154.128906 C 332.289062 151 330.46875 150.875 329.199219 151.445312 C 327.929688 152.019531 325.75 167.65625 325.75 167.65625 C 325.75 167.65625 325.242188 166.445312 324.535156 161.269531 C 323.832031 156.09375 323.578125 150.230469 321.21875 150.589844 C 318.859375 150.953125 319.371094 159.65625 319.691406 164.707031 C 320.011719 169.757812 317.839844 172.046875 316.054688 174.117188 C 314.265625 176.1875 312.230469 174.5625 311.460938 171.183594 C 310.691406 167.804688 307.5 163.648438 305.1875 164.800781 C 302.875 165.953125 304.9375 168.722656 306.601562 172.390625 C 308.261719 176.0625 308.703125 175.457031 310.300781 182.414062 C 311.898438 189.367188 316.609375 191.824219 316.609375 191.824219 L 319.230469 211.285156 L 312.660156 207.074219 C 312.660156 207.074219 308.128906 202.542969 306.914062 197.5625 C 305.699219 192.582031 294.597656 181.417969 293.839844 179.441406 C 293.078125 177.464844 295.8125 174.078125 297.601562 171.839844 C 298.894531 170.371094 299.703125 168.667969 300.023438 166.738281 C 300.53125 164.761719 302.453125 166.164062 303.214844 165.167969 C 303.972656 164.171875 302.640625 160.125 302.070312 157.507812 C 301.496094 154.886719 306.914062 153.421875 305.574219 150.613281 C 304.296875 147.941406 303.886719 140.578125 303.691406 140.050781 C 304.027344 140.136719 307.203125 139.621094 308.316406 135.558594 C 309.53125 131.152344 305.511719 127.449219 301.300781 127.449219 C 297.089844 127.449219 290.585938 119.984375 280.917969 119.476562 C 271.253906 118.964844 259.464844 134.34375 259.277344 140.398438 C 259.007812 145.050781 258.433594 149.667969 257.550781 154.246094 L 253.082031 160.628906 C 244.921875 155.078125 235.226562 158.007812 235.226562 158.007812 C 235.226562 158.007812 233.5625 155.078125 221.3125 154.433594 C 209.058594 153.789062 210.824219 161.851562 199.847656 160.1875 C 188.875 158.527344 176.621094 163.507812 164.5 165.679688 C 152.382812 167.851562 151.738281 169.378906 148.824219 174.484375 C 145.90625 179.589844 138.757812 196.949219 136.585938 206.265625 C 134.414062 215.582031 131.234375 219.410156 129.957031 223.628906 C 128.675781 227.847656 132.378906 234.089844 133.40625 239.070312 C 134.429688 244.046875 135.566406 242.386719 135.566406 242.386719 C 135.925781 243.375 136.449219 244.269531 137.136719 245.066406 C 137.4375 245.410156 137.804688 245.648438 138.238281 245.789062 C 138.671875 245.929688 139.113281 245.949219 139.558594 245.851562 C 139.558594 245.851562 141.210938 248.273438 143.382812 247.640625 C 145.554688 247.003906 151.800781 246.855469 157.933594 245.207031 C 159.53125 244.832031 160.988281 244.144531 162.296875 243.148438 C 163.601562 242.152344 164.652344 240.933594 165.441406 239.492188 C 167.398438 239.292969 169.332031 238.980469 171.25 238.558594 C 174.664062 237.804688 177.953125 236.691406 181.121094 235.21875 C 180.335938 236.527344 179.875 237.296875 179.875 237.296875 C 179.875 237.296875 176.816406 245.082031 172.609375 253.503906 C 168.398438 261.925781 165.332031 262.695312 161.25 265.886719 C 157.164062 269.078125 158.691406 275.847656 157.800781 289.414062 C 156.90625 302.976562 169.160156 320.777344 169.160156 320.777344 C 169.160156 320.777344 165.71875 334.3125 163.546875 342.996094 C 161.375 351.675781 157.132812 371.726562 157.132812 371.726562 C 156.164062 371.738281 155.246094 371.957031 154.375 372.382812 C 153.503906 372.804688 152.761719 373.394531 152.15625 374.148438 C 150.117188 376.707031 145.140625 387.933594 145.140625 387.933594 C 141.253906 390.257812 137.59375 392.894531 134.164062 395.847656 C 128.550781 400.703125 123.449219 409.632812 116.917969 417.804688 C 110.390625 425.976562 95.636719 441.636719 86.316406 447.007812 C 76.996094 452.378906 73.300781 456.691406 74.421875 463.472656 C 75.542969 470.257812 85.648438 472.40625 87.4375 473.941406 C 89.222656 475.480469 95.980469 486.066406 99.554688 489.257812 C 103.128906 492.449219 117.160156 489.257812 120.226562 488.113281 C 123.292969 486.96875 119.082031 485.296875 114.105469 484.191406 C 109.125 483.085938 103.515625 467.851562 108.109375 457.53125 C 112.703125 447.210938 135.285156 432.515625 135.285156 432.515625 C 135.285156 432.515625 138.851562 435.957031 141.148438 435.199219 C 143.445312 434.4375 151.613281 421.410156 151.613281 421.410156 C 151.613281 421.410156 156.207031 419.625 160.292969 413.625 C 164.375 407.625 179.5625 400.222656 183.261719 390.648438 C 186.960938 381.074219 210.980469 375.898438 217.09375 374.078125 C 223.207031 372.261719 243.636719 370.503906 251.421875 361.53125 C 259.207031 352.5625 260.207031 347.046875 255.503906 338.375 C 250.800781 329.703125 225.003906 300.972656 225.003906 300.972656 C 225.003906 300.972656 228.835938 295.230469 229.597656 289.742188 C 230.359375 284.253906 232.921875 277.109375 234.960938 268.570312 C 236.996094 260.03125 264.945312 234.746094 270.429688 228.75 C 275.917969 222.75 284.335938 213.808594 284.335938 213.808594 L 286.445312 216.367188 L 290.273438 215.472656 C 291.519531 217.027344 292.644531 218.667969 293.648438 220.390625 C 295.054688 222.875 306.347656 231.871094 310.308594 236.402344 C 314.265625 240.933594 319.175781 246.363281 326.574219 247.640625 C 333.972656 248.917969 336.269531 245.019531 336.59375 244.761719 C 336.914062 244.503906 338.820312 234.363281 338.121094 228.042969 C 337.421875 221.722656 333.972656 212.023438 332.375 206.085938 C 330.777344 200.148438 331.488281 192.613281 331.488281 192.613281 C 331.488281 192.613281 335.566406 184.066406 336.460938 180.230469 C 337.351562 176.398438 337.863281 177.621094 340.160156 175.191406 C 342.457031 172.757812 345.402344 167.914062 343.804688 166.824219 Z M 193.914062 206.527344 C 188.003906 200.253906 175.765625 197.570312 162.753906 200.472656 C 161.035156 200.855469 159.335938 201.328125 157.667969 201.890625 C 162.613281 194.636719 166.703125 187.777344 166.703125 187.777344 C 168.398438 187.011719 170.144531 186.378906 171.933594 185.878906 C 173.71875 185.496094 180.101562 187.792969 185.203125 189.195312 C 190.308594 190.597656 199.621094 189.445312 199.621094 189.445312 L 200.261719 191.367188 C 197.878906 196.308594 195.761719 201.359375 193.914062 206.527344 Z M 193.914062 206.527344 " fill-opacity="1" fill-rule="nonzero"/><path fill="#000000" d="M 542.847656 222.746094 L 543.53125 223.65625 L 543.53125 224.5625 L 544.4375 224.5625 L 545.34375 239.089844 C 545.949219 248.773438 546.554688 253.617188 547.160156 253.617188 C 547.761719 253.617188 548.519531 256.039062 549.425781 260.878906 L 550.789062 268.144531 L 550.335938 268.144531 C 550.03125 268.144531 549.503906 269.808594 548.746094 273.136719 C 547.992188 276.464844 546.402344 280.855469 543.984375 286.300781 C 541.5625 291.75 539.75 295.378906 538.539062 297.195312 C 537.328125 299.011719 535.816406 301.128906 534.003906 303.550781 C 532.1875 305.972656 529.769531 308.695312 526.746094 311.722656 C 523.722656 314.75 519.863281 318.304688 515.175781 322.390625 C 510.488281 326.476562 504.214844 330.789062 496.351562 335.328125 C 488.488281 339.867188 483.042969 343.5 480.019531 346.222656 C 476.996094 348.949219 475.105469 350.988281 474.351562 352.351562 C 473.59375 353.714844 472.308594 355.605469 470.492188 358.027344 C 468.679688 360.449219 466.789062 363.019531 464.824219 365.742188 L 461.875 369.828125 L 458.246094 369.828125 L 457.792969 368.695312 C 457.488281 367.9375 456.808594 367.636719 455.75 367.785156 C 454.691406 367.9375 453.785156 368.769531 453.027344 370.28125 L 451.894531 372.554688 L 450.761719 373.007812 L 449.625 373.460938 L 449.171875 372.554688 L 449.625 369.375 C 449.929688 367.257812 449.777344 366.273438 449.171875 366.425781 C 448.566406 366.574219 445.847656 369.222656 441.007812 374.367188 C 436.167969 379.511719 433.523438 381.707031 433.070312 380.949219 C 432.617188 380.195312 432.765625 379.285156 433.523438 378.226562 L 434.65625 376.636719 L 438.058594 372.324219 C 440.328125 369.449219 441.992188 367.484375 443.050781 366.425781 L 444.636719 364.835938 L 441.914062 365.289062 C 440.101562 365.59375 438.058594 366.574219 435.789062 368.242188 C 433.523438 369.90625 431.40625 371.191406 429.441406 372.097656 L 426.492188 373.460938 L 426.492188 372.097656 C 426.492188 371.191406 427.550781 370.054688 429.667969 368.695312 C 431.785156 367.332031 434.050781 365.742188 436.472656 363.929688 C 438.890625 362.113281 440.707031 360.75 441.914062 359.84375 C 443.125 358.933594 444.109375 357.949219 444.863281 356.890625 C 445.621094 355.832031 446.527344 355 447.585938 354.394531 C 448.644531 353.789062 449.550781 352.882812 450.308594 351.671875 C 451.0625 350.460938 453.257812 348.34375 456.886719 345.316406 C 460.515625 342.289062 462.933594 340.171875 464.144531 338.960938 C 465.351562 337.75 467.09375 336.464844 469.359375 335.101562 C 471.628906 333.738281 474.199219 331.773438 477.070312 329.199219 C 479.945312 326.628906 481.757812 324.585938 482.515625 323.070312 C 483.273438 321.558594 483.953125 320.726562 484.558594 320.574219 C 485.160156 320.421875 489.925781 315.582031 498.847656 306.046875 C 507.769531 296.515625 514.34375 288.117188 518.578125 280.855469 C 522.8125 273.589844 525.382812 269.203125 526.292969 267.691406 L 527.652344 265.417969 L 528.105469 255.433594 C 528.410156 248.773438 529.316406 242.269531 530.828125 235.914062 C 532.339844 229.558594 533.171875 226.304688 533.324219 226.152344 C 533.472656 226 534.910156 225.320312 537.632812 224.109375 C 540.355469 222.898438 541.789062 222.21875 541.941406 222.066406 L 542.167969 221.839844 Z M 542.847656 222.746094 " fill-opacity="1" fill-rule="evenodd"/><g clip-path="url(#39e3ce8e0d)"><path stroke-linecap="butt" transform="matrix(0.907273, 0, 0, 0.907908, 425.584086, 20.475109)" fill="none" stroke-linejoin="miter" d="M 129.248423 222.787878 L 130.001883 223.790354 L 130.001883 224.788528 L 131.000756 224.788528 L 131.999629 240.789419 C 132.666979 251.455246 133.33433 256.790311 134.00168 256.790311 C 134.664725 256.790311 135.499989 259.457843 136.498862 264.788605 L 138.001476 272.791202 L 137.50204 272.791202 C 137.166212 272.791202 136.584971 274.624055 135.749707 278.289761 C 134.918748 281.955467 133.166416 286.791445 130.50132 292.78909 C 127.831919 298.791038 125.834173 302.788034 124.499472 304.788683 C 123.164772 306.789332 121.498549 309.121272 119.500803 311.788804 C 117.498752 314.456336 114.833656 317.455159 111.50121 320.789574 C 108.168764 324.12399 103.914944 328.039239 98.748361 332.539624 C 93.581778 337.040009 86.667167 341.789938 78.000224 346.78941 C 69.333281 351.788882 63.331433 355.79018 59.998987 358.789003 C 56.666541 361.792128 54.582686 364.038018 53.751727 365.539581 C 52.916463 367.041143 51.499958 369.123539 49.497907 371.791072 C 47.500162 374.458604 45.416306 377.28963 43.250647 380.288453 L 40.000005 384.788838 L 36.000209 384.788838 L 35.500772 383.541121 C 35.164944 382.706442 34.41579 382.375152 33.249003 382.538645 C 32.082216 382.706442 31.083344 383.622868 30.248079 385.287925 L 28.999488 387.791963 L 27.750897 388.29105 L 26.498001 388.790137 L 25.998565 387.791963 L 26.498001 384.289751 C 26.833829 381.957812 26.665915 380.873589 25.998565 381.041385 C 25.331214 381.204879 22.334596 384.121955 17.000099 389.78831 C 11.665602 395.454665 8.750788 397.872654 8.251352 397.037974 C 7.751915 396.207597 7.915524 395.205122 8.750788 394.039152 L 9.999379 392.288046 L 13.749457 387.538117 C 16.250944 384.371498 18.085081 382.207355 19.251868 381.041385 L 20.999895 379.29028 L 17.998972 379.789366 C 16.001226 380.124959 13.749457 381.204879 11.24797 383.042035 C 8.750788 384.874888 6.417215 386.290401 4.251555 387.288574 L 1.000913 388.790137 L 1.000913 387.288574 C 1.000913 386.290401 2.1677 385.038381 4.501273 383.541121 C 6.834847 382.039559 9.332029 380.288453 12.00143 378.292106 C 14.666526 376.291457 16.668577 374.789894 17.998972 373.791721 C 19.333672 372.789245 20.418655 371.705022 21.249614 370.539052 C 22.084878 369.373083 23.083751 368.456656 24.250537 367.789773 C 25.417324 367.12289 26.416197 366.124717 27.251461 364.790951 C 28.08242 363.457184 30.502103 361.125245 34.501899 357.790829 C 38.501696 354.456414 41.166792 352.124474 42.501492 350.790708 C 43.831887 349.456942 45.752134 348.041429 48.249316 346.539866 C 50.750803 345.038304 53.583813 342.874161 56.748345 340.038832 C 59.917183 337.207806 61.914929 334.957613 62.750193 333.288254 C 63.585457 331.623198 64.334612 330.706771 65.001962 330.538975 C 65.665007 330.371178 70.9177 325.040416 80.75143 314.538083 C 90.58516 304.040053 97.831292 294.789739 102.498439 286.791445 C 107.165586 278.788847 109.998596 273.957172 111.001774 272.292116 L 112.500083 269.788077 L 112.999519 258.79096 C 113.335347 251.455246 114.33422 244.291631 116.000443 237.29151 C 117.666666 230.291389 118.583735 226.70743 118.751649 226.539633 C 118.915257 226.371837 120.499676 225.623207 123.5006 224.289441 C 126.501523 222.955675 128.081637 222.207045 128.249551 222.039248 L 128.499269 221.789705 Z M 129.248423 222.787878 " stroke="#000000" stroke-width="2" stroke-opacity="1" stroke-miterlimit="4"/></g><path stroke-linecap="butt" transform="matrix(0.907273, 0, 0, 0.907908, 425.584086, 20.475109)" fill-opacity="1" fill="#000000" fill-rule="evenodd" stroke-linejoin="miter" d="M 121.748267 381.290929 L 123.001163 380.791842 L 132.499065 386.539944 C 138.832435 390.373446 142.668623 392.541892 143.999018 393.040978 L 146.001069 393.789608 L 146.999942 395.540714 C 147.667292 396.706684 148.834079 396.956228 150.500302 396.289344 C 152.166525 395.622461 154.668013 395.454665 158.000459 395.790258 C 161.332905 396.121548 166.835316 396.207597 174.499081 396.039801 L 185.999034 395.790258 L 186.997907 396.289344 L 189.499394 398.78908 C 191.165617 400.458439 192.91795 402.540836 194.752087 405.040571 C 196.581918 407.540307 198.334251 410.788673 200.000474 414.789972 C 201.666697 418.79127 203.668748 425.954886 205.998016 436.289422 C 208.331589 446.623959 209.498376 451.954721 209.498376 452.290314 C 209.498376 452.621604 209.834204 453.95537 210.501554 456.291612 C 211.164599 458.623552 212.4993 463.123937 214.501351 469.788465 C 216.499096 476.457296 218.083515 481.456768 219.250302 484.791183 L 220.998329 489.790655 L 210.501554 492.290391 L 200.000474 494.790127 L 198.751883 491.287915 C 197.916619 488.955976 196.917746 486.288444 195.75096 483.289621 C 194.584173 480.290798 193.667104 478.789236 192.999754 478.789236 C 192.332404 478.789236 191.583249 477.791062 190.747985 475.790413 C 189.917026 473.789764 188.082889 471.040484 185.249879 467.538273 C 182.41687 464.040363 179.58386 460.538152 176.75085 457.040242 C 173.91784 453.53803 172.083703 451.455634 171.248439 450.788751 C 170.41748 450.121868 169.250693 446.955249 167.748079 441.288894 C 166.24977 435.622539 165.082983 432.541969 164.252024 432.03858 L 162.999128 431.28995 L 163.748282 429.039758 C 164.252024 427.538195 164.252024 424.956712 163.748282 421.291006 L 162.999128 415.788145 L 161.251101 413.791799 C 160.084314 412.458032 158.418091 410.371334 156.248126 407.540307 C 154.082466 404.704979 152.584157 402.872126 151.748893 402.041749 L 150.500302 400.78973 L 148.747969 402.041749 C 147.581183 402.872126 143.7493 406.374338 137.248016 412.539779 L 127.500396 421.790093 L 124.499472 431.28995 C 122.501727 437.623188 120.917308 442.29137 119.750521 445.290192 C 118.583735 448.289015 117.335144 450.539208 116.000443 452.04077 C 114.665742 453.53803 113.335347 454.79005 112.000647 455.788223 C 110.665946 456.790699 109.417355 458.038416 108.250568 459.539978 C 107.083782 461.041541 105.749081 462.039714 104.250772 462.538801 C 102.748157 463.037887 101.581371 463.872567 100.750412 465.038537 L 99.501821 466.789643 L 98.998079 467.792118 C 98.666557 468.454699 97.999206 470.291854 97.000334 473.290677 L 95.502024 477.791062 L 94.249128 477.291976 C 93.418169 476.956383 92.664709 477.455469 92.001664 478.789236 L 90.998486 480.789885 L 84.002071 481.538515 C 79.334925 482.041904 76.084283 481.706311 74.250146 480.540342 C 72.416009 479.374372 71.167418 477.954556 70.500068 476.2895 C 69.832717 474.624443 69.415085 473.621967 69.251477 473.290677 L 69.001758 472.79159 L 69.251477 472.288201 C 69.415085 471.956911 70.418263 471.040484 72.248095 469.538922 C 74.082232 468.041662 75.416932 466.372303 76.247891 464.53945 C 77.083156 462.706597 77.91842 460.288608 78.749379 457.289786 C 79.584643 454.290963 80.415602 452.290314 81.250866 451.29214 C 82.081825 450.289664 82.998893 448.456812 84.002071 445.789279 C 85.000944 443.121747 86.667167 439.623837 89.000741 435.291249 C 91.334314 430.95866 93.250255 428.454621 94.748564 427.792041 L 97.000334 426.789565 L 101.249848 416.790621 C 104.082858 410.12179 106.166713 405.789202 107.501414 403.788552 C 108.831809 401.787903 109.417355 400.458439 109.249441 399.791556 C 109.081527 399.124673 109.081527 398.45779 109.249441 397.790907 C 109.417355 397.124024 109.417355 396.375394 109.249441 395.540714 L 108.999723 394.288695 L 109.998596 393.789608 C 110.665946 393.458318 111.832733 392.623639 113.498956 391.289873 C 115.165179 389.956106 116.749598 388.041507 118.247907 385.541771 C 119.750521 383.042035 120.917308 381.622219 121.748267 381.290929 Z M 121.748267 381.290929 " stroke="#000000" stroke-width="2" stroke-opacity="1" stroke-miterlimit="4"/><path stroke-linecap="butt" transform="matrix(0.907273, 0, 0, 0.907908, 425.584086, 20.475109)" fill-opacity="1" fill="#000000" fill-rule="evenodd" stroke-linejoin="miter" d="M 157.75074 362.291215 L 158.999331 358.789003 L 159.998204 359.541935 C 160.665554 360.041022 162.168169 360.621856 164.501742 361.288739 C 166.835316 361.955622 169.75013 363.706728 173.25049 366.542056 C 176.75085 369.373083 179.502056 372.122362 181.499801 374.789894 C 183.501852 377.457427 185.081965 380.624046 186.248752 384.289751 L 188.001085 389.78831 L 184.500725 389.03968 C 182.167151 388.540593 176.501132 388.123254 167.498361 387.791963 C 158.499895 387.45637 152.833875 387.705914 150.500302 388.540593 L 146.999942 389.78831 L 146.750224 386.290401 C 146.58231 383.958461 146.250787 382.538645 145.751351 382.039559 C 145.251915 381.540472 145.084001 381.204879 145.251915 381.041385 C 145.415523 380.873589 145.833155 379.458076 146.500506 376.790544 C 147.167856 374.123011 147.417574 372.707498 147.24966 372.539702 L 146.999942 372.290158 L 148.498251 371.291985 C 149.501429 370.625102 151.081543 369.540879 153.251508 368.039317 C 155.417167 366.542056 156.915476 364.623154 157.75074 362.291215 Z M 157.75074 362.291215 " stroke="#000000" stroke-width="2" stroke-opacity="1" stroke-miterlimit="4"/><path stroke-linecap="butt" transform="matrix(0.907273, 0, 0, 0.907908, 425.584086, 20.475109)" fill-opacity="1" fill="#000000" fill-rule="evenodd" stroke-linejoin="miter" d="M 200.499911 194.038764 L 203.001398 193.78922 L 208.99894 195.04124 C 212.998736 195.871617 216.998533 197.205383 220.998329 199.038236 L 227.000177 201.791817 L 227.749331 204.79064 C 228.248768 206.791289 228.834314 208.456346 229.501664 209.790112 C 230.164709 211.123878 231.331495 213.124527 233.002024 215.79206 L 235.499206 219.789056 L 237.251539 221.041075 C 238.418325 221.871452 239.83483 222.538335 241.501053 223.041724 L 243.998235 223.790354 L 245.750568 226.789177 C 246.917355 228.789826 248.165946 230.454883 249.500646 231.788649 C 250.835347 233.122415 252.751288 235.458657 255.24847 238.78877 C 257.749957 242.123185 259.915617 244.123835 261.749754 244.790718 C 263.583891 245.457601 265.667746 247.78954 268.001319 251.790839 L 271.501679 257.788484 L 270.748219 258.291873 L 269.999065 258.79096 L 262.998345 259.290047 L 261.500036 260.038677 L 260.001726 260.791609 L 254.998752 276.788198 L 246.000286 280.789497 L 244.501977 279.54178 C 243.498799 278.707101 243.249081 277.704625 243.748517 276.538655 C 244.247953 275.372685 244.084345 274.624055 243.249081 274.288462 C 242.418122 273.957172 242.082294 272.954696 242.250208 271.28964 C 242.418122 269.624583 242.00049 268.123021 241.001617 266.789254 L 239.499002 264.788605 L 236.752102 262.787956 L 234.000897 260.791609 L 232.498282 261.041153 C 231.499409 261.204646 231.167887 260.955103 231.499409 260.28822 C 231.835237 259.621337 230.250819 257.538941 226.750458 254.041031 C 223.250098 250.53882 220.666807 247.78954 219.000584 245.788891 C 217.334361 243.788242 215.917856 242.540525 214.751069 242.041438 L 212.998736 241.288506 L 211.250709 243.538698 C 210.083922 245.040261 208.081871 246.124484 205.248862 246.791367 L 200.999347 247.78954 L 198.751883 243.289155 C 197.249269 240.290332 195.501241 235.957744 193.49919 230.291389 C 191.501445 224.625034 190.666181 219.122173 191.002009 213.79141 C 191.333531 208.456346 191.832967 204.958436 192.500318 203.289077 C 193.167668 201.624021 194.248345 199.705119 195.75096 197.540975 L 197.998423 194.288307 Z M 200.499911 194.038764 " stroke="#000000" stroke-width="2" stroke-opacity="1" stroke-miterlimit="4"/><path stroke-linecap="butt" transform="matrix(0.907273, 0, 0, 0.907908, 425.584086, 20.475109)" fill-opacity="1" fill="#000000" fill-rule="evenodd" stroke-linejoin="miter" d="M 67.748862 474.28885 L 69.001758 472.79159 L 69.251477 473.290677 C 69.415085 473.621967 69.832717 474.624443 70.500068 476.2895 C 71.167418 477.954556 72.416009 479.374372 74.250146 480.540342 C 76.084283 481.706311 79.334925 482.041904 84.002071 481.538515 L 90.998486 480.789885 L 91.248204 481.288972 C 91.416118 481.624564 91.248204 482.373194 90.748768 483.539164 L 89.999613 485.29027 L 89.500177 487.041376 L 89.000741 488.788179 L 81.500584 488.538636 C 76.501915 488.375142 73.333077 488.121296 71.998377 487.790006 C 70.667981 487.458716 69.415085 486.87358 68.248298 486.0389 C 67.081512 485.208523 66.082639 483.788708 65.25168 481.788058 L 63.998784 478.789236 L 65.25168 477.291976 C 66.082639 476.2895 66.917903 475.291326 67.748862 474.28885 Z M 67.748862 474.28885 " stroke="#000000" stroke-width="2" stroke-opacity="1" stroke-miterlimit="4"/><path stroke-linecap="butt" transform="matrix(0.907273, 0, 0, 0.907908, 425.584086, 20.475109)" fill-opacity="1" fill="#000000" fill-rule="evenodd" stroke-linejoin="miter" d="M 210.501554 492.290391 L 220.998329 489.790655 L 221.751789 490.289742 C 222.251226 490.625335 222.918576 491.623508 223.749535 493.288565 L 224.998126 495.788301 L 222.500944 497.539407 C 220.834721 498.705376 219.50002 498.791426 218.501147 497.78895 L 216.998533 496.29169 L 211.999864 497.289863 C 208.667417 497.956746 206.333844 498.623629 204.999143 499.290512 C 203.668748 499.957395 202.66557 499.871346 201.99822 499.040969 L 200.999347 497.78895 L 200.000474 497.78895 L 200.000474 494.790127 Z M 210.501554 492.290391 " stroke="#000000" stroke-width="2" stroke-opacity="1" stroke-miterlimit="4"/><path fill="#000000" d="M 483.648438 454.71875 L 483.648438 455.171875 L 484.785156 457.894531 C 485.539062 459.710938 486.445312 461 487.503906 461.753906 C 488.5625 462.511719 489.699219 463.042969 490.90625 463.34375 C 492.117188 463.644531 494.992188 463.875 499.527344 464.023438 L 506.332031 464.25 L 507.464844 466.519531 C 508.222656 468.035156 509.054688 470.910156 509.960938 475.148438 C 510.867188 479.382812 510.792969 482.5625 509.734375 484.679688 L 508.144531 487.855469 L 474.125 488.992188 C 451.441406 489.75 439.117188 489.75 437.152344 488.992188 C 435.1875 488.234375 433.976562 487.101562 433.523438 485.585938 L 432.84375 483.316406 L 435.109375 484.453125 L 437.378906 485.585938 L 452.347656 486.496094 C 462.328125 487.101562 469.285156 487.101562 473.214844 486.496094 C 477.148438 485.890625 480.472656 484.980469 483.195312 483.773438 C 485.917969 482.5625 487.355469 481.425781 487.503906 480.367188 L 487.730469 478.777344 L 468 477.1875 C 454.84375 476.128906 447.964844 475.222656 447.359375 474.464844 L 446.453125 473.332031 L 450.535156 472.195312 C 453.257812 471.4375 456.734375 470 460.96875 467.882812 C 465.203125 465.765625 467.621094 464.023438 468.226562 462.664062 C 468.832031 461.300781 469.585938 460.621094 470.492188 460.621094 C 471.402344 460.621094 471.855469 460.316406 471.855469 459.710938 L 471.855469 458.804688 L 475.484375 458.578125 C 477.902344 458.425781 479.339844 457.820312 479.792969 456.761719 C 480.246094 455.703125 481.003906 455.019531 482.0625 454.71875 L 483.648438 454.265625 Z M 483.648438 454.71875 " fill-opacity="1" fill-rule="evenodd"/><g clip-path="url(#2717184fc4)"><path stroke-linecap="butt" transform="matrix(0.907273, 0, 0, 0.907908, 425.584086, 20.475109)" fill="none" stroke-linejoin="miter" d="M 63.998784 478.290149 L 63.998784 478.789236 L 65.25168 481.788058 C 66.082639 483.788708 67.081512 485.208523 68.248298 486.0389 C 69.415085 486.87358 70.667981 487.458716 71.998377 487.790006 C 73.333077 488.121296 76.501915 488.375142 81.500584 488.538636 L 89.000741 488.788179 L 90.249332 491.287915 C 91.084596 492.957274 92.001664 496.123893 93.000537 500.792075 C 93.99941 505.455954 93.917606 508.958166 92.750819 511.290105 L 90.998486 514.788015 L 53.502009 516.040034 C 28.500052 516.874713 14.916244 516.874713 12.750584 516.040034 C 10.584925 515.205355 9.250224 513.957638 8.750788 512.288279 L 8.001633 509.788543 L 10.498815 511.040562 L 13.000303 512.288279 L 29.498925 513.290755 C 40.499441 513.957638 48.167512 513.957638 52.498831 513.290755 C 56.834455 512.623872 60.498424 511.621396 63.499347 510.291932 C 66.500271 508.958166 68.08469 507.706147 68.248298 506.540177 L 68.498017 504.789071 L 46.751007 503.037965 C 32.25013 501.871995 24.668169 500.873822 24.000819 500.039142 L 23.001946 498.791426 L 27.501179 497.539407 C 30.502103 496.704727 34.333985 495.121418 39.001132 492.789478 C 43.668279 490.457538 46.333375 488.538636 47.000725 487.041376 C 47.668075 485.539813 48.499034 484.791183 49.497907 484.791183 C 50.501085 484.791183 51.000522 484.455591 51.000522 483.788708 L 51.000522 482.790534 L 55.000318 482.540991 C 57.665414 482.373194 59.249833 481.706311 59.749269 480.540342 C 60.248705 479.374372 61.08397 478.621439 62.250756 478.290149 L 63.998784 477.791062 Z M 63.998784 478.290149 " stroke="#000000" stroke-width="2" stroke-opacity="1" stroke-miterlimit="4"/></g><path stroke-linecap="butt" transform="matrix(0.907273, 0, 0, 0.907908, 425.584086, 20.475109)" fill-opacity="1" fill="#000000" fill-rule="evenodd" stroke-linejoin="miter" d="M 222.500944 497.539407 L 224.998126 495.788301 L 227.999049 496.29169 L 230.999973 496.790776 L 231.249691 498.791426 C 231.417605 500.125192 231.499409 500.955569 231.499409 501.291162 C 231.499409 501.622452 232.584392 505.62375 234.750051 513.290755 L 238.000693 524.791261 L 236.498079 523.539242 L 234.99977 522.291525 L 234.000897 522.291525 C 233.333546 522.291525 232.248564 522.872359 230.750255 524.038329 C 229.251946 525.208601 226.918372 526.538064 223.749535 528.039627 C 220.585003 529.54119 216.66701 530.625412 211.999864 531.287993 L 204.999143 532.290469 L 204.000271 531.541839 L 203.001398 530.788906 L 202.247938 526.79191 C 201.748501 524.124378 201.666697 522.291525 201.99822 521.289049 C 202.334048 520.290876 202.247938 519.623993 201.748501 519.2884 C 201.249065 518.95711 201.085457 518.12243 201.249065 516.788664 C 201.416979 515.454898 201.584893 514.374978 201.748501 513.540298 L 201.99822 512.288279 L 200.999347 511.789192 C 200.331997 511.457902 199.16521 511.371852 197.498987 511.539649 L 195.001805 511.789192 L 197.498987 497.78895 L 200.999347 497.78895 L 201.99822 499.040969 C 202.66557 499.871346 203.668748 499.957395 204.999143 499.290512 C 206.333844 498.623629 208.667417 497.956746 211.999864 497.289863 L 216.998533 496.29169 L 218.501147 497.78895 C 219.50002 498.791426 220.834721 498.705376 222.500944 497.539407 Z M 222.500944 497.539407 " stroke="#000000" stroke-width="2" stroke-opacity="1" stroke-miterlimit="4"/><path fill="#000000" d="M 441.460938 475.375 L 446.453125 473.332031 L 447.359375 474.464844 C 447.964844 475.222656 454.84375 476.128906 468 477.1875 L 487.730469 478.777344 L 487.503906 480.367188 C 487.355469 481.425781 485.917969 482.5625 483.195312 483.773438 C 480.472656 484.980469 477.148438 485.890625 473.214844 486.496094 C 469.285156 487.101562 462.328125 487.101562 452.347656 486.496094 L 437.378906 485.585938 L 435.109375 484.453125 L 432.84375 483.316406 L 434.65625 480.367188 C 435.867188 478.398438 438.132812 476.734375 441.460938 475.375 Z M 441.460938 475.375 " fill-opacity="1" fill-rule="evenodd"/><g clip-path="url(#238a284c2f)"><path stroke-linecap="butt" transform="matrix(0.907273, 0, 0, 0.907908, 425.584086, 20.475109)" fill="none" stroke-linejoin="miter" d="M 17.499535 501.041618 L 23.001946 498.791426 L 24.000819 500.039142 C 24.668169 500.873822 32.25013 501.871995 46.751007 503.037965 L 68.498017 504.789071 L 68.248298 506.540177 C 68.08469 507.706147 66.500271 508.958166 63.499347 510.291932 C 60.498424 511.621396 56.834455 512.623872 52.498831 513.290755 C 48.167512 513.957638 40.499441 513.957638 29.498925 513.290755 L 13.000303 512.288279 L 10.498815 511.040562 L 8.001633 509.788543 L 9.999379 506.540177 C 11.334079 504.371731 13.831261 502.538878 17.499535 501.041618 Z M 17.499535 501.041618 " stroke="#000000" stroke-width="2" stroke-opacity="1" stroke-miterlimit="4"/></g><path stroke-linecap="butt" transform="matrix(0.907273, 0, 0, 0.907908, 425.584086, 20.475109)" fill-opacity="1" fill="#000000" fill-rule="evenodd" stroke-linejoin="miter" d="M 184.500725 389.03968 L 188.001085 389.78831 L 188.001085 392.791435 L 186.997907 394.288695 L 185.999034 395.790258 L 174.499081 396.039801 C 166.835316 396.207597 161.332905 396.121548 158.000459 395.790258 C 154.668013 395.454665 152.166525 395.622461 150.500302 396.289344 C 148.834079 396.956228 147.667292 396.706684 146.999942 395.540714 L 146.001069 393.789608 L 146.999942 389.78831 L 150.500302 388.540593 C 152.833875 387.705914 158.499895 387.45637 167.498361 387.791963 C 176.501132 388.123254 182.167151 388.540593 184.500725 389.03968 Z M 184.500725 389.03968 " stroke="#000000" stroke-width="2" stroke-opacity="1" stroke-miterlimit="4"/><path stroke-linecap="butt" transform="matrix(0.907273, 0, 0, 0.907908, 425.584086, 20.475109)" fill-opacity="1" fill="#000000" fill-rule="evenodd" stroke-linejoin="miter" d="M 224.998126 304.289596 L 224.998126 304.788683 L 222.750662 312.287891 C 221.248047 317.291665 220.249175 320.458284 219.749738 321.79205 L 219.000584 323.788397 L 218.750866 324.291786 C 218.582952 324.623076 218.083515 325.789046 217.248251 327.789696 C 216.417292 329.790345 215.831746 332.956964 215.500224 337.289553 L 215.000787 343.790587 L 212.998736 344.78876 C 211.668341 345.455644 210.415445 348.123176 209.248658 352.791357 C 208.081871 357.455237 206.665366 362.123418 204.999143 366.7916 C 203.33292 371.455479 202.247938 374.290808 201.748501 375.288981 C 201.249065 376.291457 200.831433 378.623396 200.499911 382.289102 L 200.000474 387.791963 L 193.998627 390.291699 L 188.001085 392.791435 L 188.001085 389.78831 L 186.248752 384.289751 C 185.081965 380.624046 183.501852 377.457427 181.499801 374.789894 C 179.502056 372.122362 176.75085 369.373083 173.25049 366.542056 C 169.75013 363.706728 166.835316 361.955622 164.501742 361.288739 C 162.168169 360.621856 160.665554 360.041022 159.998204 359.541935 L 158.999331 358.789003 L 158.999331 356.788354 L 161.500819 356.53881 C 163.167042 356.375316 164.501742 355.957977 165.500615 355.291093 C 166.499488 354.62421 167.166838 353.707784 167.498361 352.541814 C 167.834189 351.371542 167.834189 350.541165 167.498361 350.042078 L 166.998924 349.289146 L 169.500412 349.039602 C 171.166635 348.871806 172.333421 348.372719 173.000772 347.53804 C 173.668122 346.707663 174.335472 345.705187 174.998517 344.539217 C 175.665868 343.373247 176.66474 342.706364 177.999441 342.538568 C 179.334142 342.375074 181.499801 340.623968 184.500725 337.289553 L 188.999958 332.290081 L 193.49919 331.291907 C 196.500114 330.625024 198.334251 330.121635 199.001601 329.790345 L 200.000474 329.291258 L 200.499911 324.03794 L 200.999347 318.788925 L 201.498783 318.040295 C 201.834611 317.541208 202.833484 317.373412 204.499707 317.541208 L 207.001194 317.790752 L 208.499503 315.041472 C 209.498376 313.20862 211.164599 312.038347 213.498173 311.539261 C 215.831746 311.040174 217.334361 309.955951 218.001711 308.290895 C 218.664756 306.621536 219.999456 305.455566 222.001507 304.788683 L 224.998126 303.790509 Z M 224.998126 304.289596 " stroke="#000000" stroke-width="2" stroke-opacity="1" stroke-miterlimit="4"/><path stroke-linecap="butt" transform="matrix(0.907273, 0, 0, 0.907908, 425.584086, 20.475109)" fill-opacity="1" fill="#000000" fill-rule="evenodd" stroke-linejoin="miter" d="M 167.248642 308.789981 L 169.999848 303.790509 L 173.000772 305.541615 C 174.998517 306.707585 176.165304 307.705759 176.501132 308.540438 C 176.832654 309.375117 177.831527 310.205494 179.502056 311.040174 C 181.168279 311.874853 182.748392 312.873027 184.251007 314.038997 C 185.749316 315.204966 187.25193 316.207442 188.750239 317.042122 C 190.248548 317.872499 191.501445 318.707178 192.500318 319.541858 L 193.998627 320.789574 L 197.498987 319.791401 L 200.999347 318.788925 L 200.499911 324.03794 L 200.000474 329.291258 L 199.001601 329.790345 C 198.334251 330.121635 196.500114 330.625024 193.49919 331.291907 L 188.999958 332.290081 L 184.500725 337.289553 C 181.499801 340.623968 179.334142 342.375074 177.999441 342.538568 C 176.66474 342.706364 175.665868 343.373247 174.998517 344.539217 C 174.335472 345.705187 173.668122 346.707663 173.000772 347.53804 C 172.333421 348.372719 171.166635 348.871806 169.500412 349.039602 L 166.998924 349.289146 L 167.498361 350.042078 C 167.834189 350.541165 167.834189 351.371542 167.498361 352.541814 C 167.166838 353.707784 166.499488 354.62421 165.500615 355.291093 C 164.501742 355.957977 163.167042 356.375316 161.500819 356.53881 L 158.999331 356.788354 L 158.999331 358.789003 L 157.75074 362.291215 C 156.915476 364.623154 155.417167 366.542056 153.251508 368.039317 C 151.081543 369.540879 149.501429 370.625102 148.498251 371.291985 L 146.999942 372.290158 L 147.24966 372.539702 C 147.417574 372.707498 147.167856 374.123011 146.500506 376.790544 C 145.833155 379.458076 145.415523 380.873589 145.251915 381.041385 C 145.084001 381.204879 145.251915 381.540472 145.751351 382.039559 C 146.250787 382.538645 146.58231 383.958461 146.750224 386.290401 L 146.999942 389.78831 L 146.001069 393.789608 L 143.999018 393.040978 C 142.668623 392.541892 138.832435 390.373446 132.499065 386.539944 L 123.001163 380.791842 L 121.748267 379.29028 L 120.499676 377.788717 L 120.999112 375.288981 C 121.33494 373.623925 122.333813 371.124189 124.000036 367.789773 C 125.666259 364.455358 127.332482 361.624331 128.998705 359.288089 C 130.664928 356.95615 131.999629 355.123297 132.998502 353.789531 C 134.00168 352.455765 135.999425 349.956029 139.000349 346.290323 C 142.001273 342.624617 144.334846 339.789289 146.001069 337.788639 C 147.667292 335.78799 150.999738 332.621371 155.998408 328.288782 L 163.498564 321.79205 L 163.998001 317.790752 C 164.333828 315.123219 165.418811 312.124397 167.248642 308.789981 Z M 167.248642 308.789981 " stroke="#000000" stroke-width="2" stroke-opacity="1" stroke-miterlimit="4"/><path stroke-linecap="butt" transform="matrix(0.907273, 0, 0, 0.907908, 425.584086, 20.475109)" fill-opacity="1" fill="#000000" fill-rule="evenodd" stroke-linejoin="miter" d="M 232.498282 261.041153 L 234.000897 260.791609 L 233.50146 262.787956 L 231.749128 264.539062 C 230.582341 265.705032 228.498486 266.621458 225.501867 267.288341 C 222.500944 267.955224 220.16737 267.955224 218.501147 267.288341 C 216.834924 266.621458 214.083719 264.207772 210.251836 260.038677 C 206.415648 255.873884 203.918466 252.789012 202.75168 250.788363 L 200.999347 247.78954 L 205.248862 246.791367 C 208.081871 246.124484 210.083922 245.040261 211.250709 243.538698 L 212.998736 241.288506 L 214.751069 242.041438 C 215.917856 242.540525 217.334361 243.788242 219.000584 245.788891 C 220.666807 247.78954 223.250098 250.53882 226.750458 254.041031 C 230.250819 257.538941 231.835237 259.621337 231.499409 260.28822 C 231.167887 260.955103 231.499409 261.204646 232.498282 261.041153 Z M 232.498282 261.041153 " stroke="#000000" stroke-width="2" stroke-opacity="1" stroke-miterlimit="4"/><path stroke-linecap="butt" transform="matrix(0.907273, 0, 0, 0.907908, 425.584086, 20.475109)" fill-opacity="1" fill="#000000" fill-rule="evenodd" stroke-linejoin="miter" d="M 266.498705 259.040503 L 269.999065 258.79096 L 270.498501 259.789133 L 275.501476 265.791081 C 278.833922 269.788077 280.831668 272.455609 281.499018 273.789376 C 282.166368 275.123142 282.497891 277.123791 282.497891 279.791323 L 282.497891 283.788319 L 278.498094 289.790267 C 275.832998 293.791566 274.416493 295.873962 274.24858 296.041758 L 273.998861 296.291302 L 265.000396 297.788562 L 263.502087 302.288947 C 262.498908 305.292072 261.66795 306.789332 261.000599 306.789332 L 260.001726 306.789332 L 260.001726 311.788804 C 260.001726 315.123219 259.334376 316.788276 257.999676 316.788276 L 256.00193 316.788276 L 255.498188 307.791808 L 254.998752 298.791038 L 249.00121 298.791038 L 249.500646 297.539018 L 250.000083 296.291302 L 249.00121 295.787912 C 248.33386 295.456622 246.999159 294.871486 245.001413 294.041109 L 242.00049 292.78909 L 241.750771 293.791566 C 241.582858 294.458449 240.915507 295.125332 239.748721 295.787912 C 238.581934 296.454796 238.082497 297.289475 238.250411 298.291951 C 238.418325 299.290124 238.250411 300.955181 237.750975 303.291423 L 237.00182 306.789332 L 235.748924 307.791808 C 234.917965 308.458691 233.832983 310.455038 232.498282 313.789453 C 231.167887 317.123869 230.082905 319.873148 229.251946 322.041594 C 228.416681 324.205737 227.667527 325.371707 227.000177 325.539503 C 226.332826 325.707299 225.83339 325.040416 225.501867 323.538854 L 224.998126 321.288661 L 224.248971 321.538204 C 223.749535 321.706001 222.750662 322.123341 221.248047 322.790224 L 219.000584 323.788397 L 219.749738 321.79205 C 220.249175 320.458284 221.248047 317.291665 222.750662 312.287891 L 224.998126 304.788683 L 226.001304 304.788683 L 228.248768 300.288298 C 229.751382 297.289475 230.918169 295.039282 231.749128 293.542022 L 233.002024 291.29183 L 234.000897 290.788441 C 234.668247 290.45715 236.752102 288.873841 240.248157 286.038512 L 245.50085 281.791973 L 245.750568 281.288583 L 246.000286 280.789497 L 254.998752 276.788198 L 260.001726 260.791609 L 261.500036 260.038677 L 262.998345 259.290047 Z M 266.498705 259.040503 " stroke="#000000" stroke-width="2" stroke-opacity="1" stroke-miterlimit="4"/><path stroke-linecap="butt" transform="matrix(0.907273, 0, 0, 0.907908, 425.584086, 20.475109)" fill-opacity="1" fill="#000000" fill-rule="evenodd" stroke-linejoin="miter" d="M 249.500646 297.539018 L 249.00121 298.791038 L 248.751492 299.789211 L 248.501773 300.791687 L 247.748313 303.291423 L 246.999159 305.791159 L 246.000286 306.040702 C 245.332936 306.208498 244.583781 307.537962 243.748517 310.042001 C 242.917558 312.541736 242.917558 314.206793 243.748517 315.041472 L 245.001413 316.289189 L 243.249081 318.040295 C 242.082294 319.206265 240.915507 321.456457 239.748721 324.790873 C 238.581934 328.125288 237.664865 329.790345 237.00182 329.790345 L 235.998642 329.790345 L 237.00182 318.289838 C 237.664865 310.622834 237.832779 306.789332 237.501257 306.789332 L 237.00182 306.789332 L 237.750975 303.291423 C 238.250411 300.955181 238.418325 299.290124 238.250411 298.291951 C 238.082497 297.289475 238.581934 296.454796 239.748721 295.787912 C 240.915507 295.125332 241.582858 294.458449 241.750771 293.791566 L 242.00049 292.78909 L 245.001413 294.041109 C 246.999159 294.871486 248.33386 295.456622 249.00121 295.787912 L 250.000083 296.291302 Z M 249.500646 297.539018 " stroke="#000000" stroke-width="2" stroke-opacity="1" stroke-miterlimit="4"/><path stroke-linecap="butt" transform="matrix(0.907273, 0, 0, 0.907908, 425.584086, 20.475109)" fill-opacity="1" fill="#000000" fill-rule="evenodd" stroke-linejoin="miter" d="M 248.751492 299.789211 L 249.00121 298.791038 L 254.998752 298.791038 L 255.498188 307.791808 L 256.00193 316.788276 L 256.00193 318.788925 L 257.000803 319.288012 L 257.999676 319.791401 L 258.249394 320.290488 C 258.417308 320.621778 257.917871 321.538204 256.751085 323.039767 C 255.584298 324.54133 254.167793 325.208213 252.50157 325.040416 L 250.000083 324.790873 L 249.750364 322.291137 C 249.58245 320.621778 249.332732 319.288012 249.00121 318.289838 C 248.665382 317.291665 248.665382 316.456986 249.00121 315.790102 C 249.332732 315.123219 249.332732 313.789453 249.00121 311.788804 L 248.501773 308.789981 L 247.748313 307.288419 L 246.999159 305.791159 L 247.748313 303.291423 L 248.501773 300.791687 Z M 248.751492 299.789211 " stroke="#000000" stroke-width="2" stroke-opacity="1" stroke-miterlimit="4"/><path stroke-linecap="butt" transform="matrix(0.907273, 0, 0, 0.907908, 425.584086, 20.475109)" fill-opacity="1" fill="#000000" fill-rule="evenodd" stroke-linejoin="miter" d="M 181.749519 190.291311 L 181.000365 187.791575 L 197.998423 188.789748 L 197.998423 189.288835 C 197.998423 189.624428 199.001601 189.955718 200.999347 190.291311 L 204.000271 190.790398 L 203.500834 192.29196 L 203.001398 193.78922 L 197.998423 194.288307 L 195.75096 197.540975 C 194.248345 199.705119 193.167668 201.624021 192.500318 203.289077 C 191.832967 204.958436 191.333531 208.456346 191.002009 213.79141 C 190.666181 219.122173 191.501445 224.625034 193.49919 230.291389 C 195.501241 235.957744 197.249269 240.290332 198.751883 243.289155 L 200.999347 247.78954 L 202.75168 250.788363 C 203.918466 252.789012 206.415648 255.873884 210.251836 260.038677 C 214.083719 264.207772 216.834924 266.621458 218.501147 267.288341 C 220.16737 267.955224 222.500944 267.955224 225.501867 267.288341 C 228.498486 266.621458 230.582341 265.705032 231.749128 264.539062 L 233.50146 262.787956 L 234.000897 260.791609 L 236.752102 262.787956 L 239.499002 264.788605 L 241.001617 266.789254 C 242.00049 268.123021 242.418122 269.624583 242.250208 271.28964 C 242.082294 272.954696 242.418122 273.957172 243.249081 274.288462 C 244.084345 274.624055 244.247953 275.372685 243.748517 276.538655 C 243.249081 277.704625 243.498799 278.707101 244.501977 279.54178 L 246.000286 280.789497 L 245.750568 281.288583 L 245.50085 281.791973 L 240.248157 286.038512 C 236.752102 288.873841 234.668247 290.45715 234.000897 290.788441 L 233.002024 291.29183 L 231.749128 293.542022 C 230.918169 295.039282 229.751382 297.289475 228.248768 300.288298 L 226.001304 304.788683 L 224.998126 304.788683 L 222.001507 305.292072 C 219.999456 305.623362 218.664756 306.621536 218.001711 308.290895 C 217.334361 309.955951 215.831746 311.040174 213.498173 311.539261 C 211.164599 312.038347 209.498376 313.20862 208.499503 315.041472 L 207.001194 317.790752 L 204.499707 317.541208 C 202.833484 317.373412 201.834611 317.541208 201.498783 318.040295 L 200.999347 318.788925 L 197.498987 319.791401 L 193.998627 320.789574 L 192.500318 319.541858 C 191.501445 318.707178 190.248548 317.872499 188.750239 317.042122 C 187.25193 316.207442 185.749316 315.204966 184.251007 314.038997 C 182.748392 312.873027 181.168279 311.874853 179.502056 311.040174 C 177.831527 310.205494 176.832654 309.375117 176.501132 308.540438 C 176.165304 307.705759 174.998517 306.707585 173.000772 305.541615 L 169.999848 303.790509 L 166.499488 302.288947 L 162.999128 300.791687 L 161.750537 297.289475 C 160.915273 294.957535 158.667809 291.958713 154.999535 288.288705 C 151.331261 284.622999 148.416447 281.288583 146.250787 278.289761 L 143.000146 273.789376 L 141.501836 267.79173 L 139.999222 261.290696 C 139.000349 256.958107 137.751758 249.957986 136.249144 240.290332 L 134.00168 225.791003 L 135.999425 225.291917 L 142.001273 225.791003 L 142.500709 230.790475 L 143.499582 233.789298 C 144.166932 235.789947 144.997891 237.6228 146.001069 239.287857 C 146.999942 240.957216 149.501429 243.956038 153.501226 248.288627 C 157.501022 252.621216 161.582623 255.288748 165.750333 256.291224 L 172.001899 257.788484 L 174.249363 246.791367 C 175.751977 239.455653 177.500005 228.62203 179.502056 214.290497 C 181.499801 199.954662 182.248956 191.956367 181.749519 190.291311 Z M 181.749519 190.291311 " stroke="#000000" stroke-width="2" stroke-opacity="1" stroke-miterlimit="4"/><path stroke-linecap="butt" transform="matrix(0.907273, 0, 0, 0.907908, 425.584086, 20.475109)" fill-opacity="1" fill="#000000" fill-rule="evenodd" stroke-linejoin="miter" d="M 132.748783 222.787878 L 134.00168 225.791003 L 136.249144 240.290332 C 137.751758 249.957986 139.000349 256.958107 139.999222 261.290696 L 141.501836 267.79173 L 143.000146 273.789376 L 142.500709 274.791851 C 142.164881 275.458735 141.583641 275.622228 140.748376 275.290938 C 139.917418 274.955345 139.250067 274.456259 138.750631 273.789376 L 138.001476 272.791202 L 136.498862 264.788605 C 135.499989 259.457843 134.664725 256.790311 134.00168 256.790311 C 133.33433 256.790311 132.666979 251.455246 131.999629 240.789419 L 131.000756 224.788528 L 131.500193 219.789056 Z M 132.748783 222.787878 " stroke="#000000" stroke-width="2" stroke-opacity="1" stroke-miterlimit="4"/><path stroke-linecap="butt" transform="matrix(0.907273, 0, 0, 0.907908, 425.584086, 20.475109)" fill-opacity="1" fill="#000000" fill-rule="evenodd" stroke-linejoin="miter" d="M 178.498877 188.041118 L 181.000365 187.791575 L 181.749519 190.291311 C 182.248956 191.956367 181.499801 199.954662 179.502056 214.290497 C 177.500005 228.62203 175.751977 239.455653 174.249363 246.791367 L 172.001899 257.788484 L 165.750333 256.291224 C 161.582623 255.288748 157.501022 252.621216 153.501226 248.288627 C 149.501429 243.956038 146.999942 240.957216 146.001069 239.287857 C 144.997891 237.6228 144.166932 235.789947 143.499582 233.789298 L 142.500709 230.790475 L 142.001273 225.791003 L 143.999018 225.791003 L 144.748173 228.290739 C 145.251915 229.955796 146.332592 232.623328 147.998815 236.289034 C 149.665038 239.95474 151.417371 242.372729 153.251508 243.538698 C 155.081339 244.704668 156.583954 246.038434 157.75074 247.539997 C 158.917527 249.041559 160.915273 250.289276 163.748282 251.291752 L 168.002103 252.789012 L 173.000772 223.291267 C 176.333218 203.62467 177.667918 193.707473 177.000568 193.539677 L 176.001695 193.290134 L 173.500208 192.541504 L 170.998721 191.788571 L 170.998721 190.790398 L 169.999848 189.787922 L 169.000975 188.789748 L 170.249566 188.789748 C 171.08483 188.789748 171.915789 188.957545 172.751054 189.288835 C 173.582012 189.624428 174.335472 189.538378 174.998517 189.039292 C 175.665868 188.540205 176.832654 188.204612 178.498877 188.041118 Z M 178.498877 188.041118 " stroke="#000000" stroke-width="2" stroke-opacity="1" stroke-miterlimit="4"/><path stroke-linecap="butt" transform="matrix(0.907273, 0, 0, 0.907908, 425.584086, 20.475109)" fill-opacity="1" fill="#000000" fill-rule="evenodd" stroke-linejoin="miter" d="M 169.999848 191.788571 L 170.998721 191.788571 L 173.000772 192.038114 L 174.998517 192.29196 L 176.501132 193.04059 C 177.500005 193.539677 176.333218 203.62467 173.000772 223.291267 L 168.002103 252.789012 L 163.748282 251.291752 C 160.915273 250.289276 158.917527 249.041559 157.75074 247.539997 C 156.583954 246.038434 155.081339 244.704668 153.251508 243.538698 C 151.417371 242.372729 149.665038 239.95474 147.998815 236.289034 C 146.332592 232.623328 145.251915 229.955796 144.748173 228.290739 L 143.999018 225.791003 L 143.999018 224.788528 L 145.501633 224.788528 C 146.500506 224.788528 146.999942 224.289441 146.999942 223.291267 C 146.999942 222.288792 148.666165 221.290618 151.998611 220.288142 L 157.001586 218.790882 L 158.499895 213.79141 C 159.498768 210.456995 160.501946 208.791938 161.500819 208.791938 C 162.499691 208.791938 163.584674 207.290376 164.751461 204.291553 C 165.918247 201.288428 166.91712 198.457402 167.748079 195.78987 C 168.583343 193.122337 169.332498 191.788571 169.999848 191.788571 Z M 169.999848 191.788571 " stroke="#000000" stroke-width="2" stroke-opacity="1" stroke-miterlimit="4"/><path stroke-linecap="butt" transform="matrix(0.907273, 0, 0, 0.907908, 425.584086, 20.475109)" fill-opacity="1" fill="#000000" fill-rule="evenodd" stroke-linejoin="miter" d="M 168.251821 188.290662 L 169.000975 188.789748 L 169.999848 189.787922 L 170.998721 190.790398 L 170.998721 191.788571 L 169.999848 191.788571 C 169.332498 191.788571 168.583343 193.122337 167.748079 195.78987 C 166.91712 198.457402 165.918247 201.288428 164.751461 204.291553 C 163.584674 207.290376 162.499691 208.791938 161.500819 208.791938 C 160.501946 208.791938 159.498768 210.456995 158.499895 213.79141 L 157.001586 218.790882 L 151.998611 220.288142 C 148.666165 221.290618 146.999942 222.288792 146.999942 223.291267 C 146.999942 224.289441 146.500506 224.788528 145.501633 224.788528 L 143.999018 224.788528 L 143.999018 225.791003 L 142.001273 225.791003 L 135.999425 225.291917 L 134.00168 225.791003 L 132.748783 222.787878 L 131.500193 219.789056 L 131.000756 224.788528 L 130.001883 224.788528 L 130.001883 223.790354 L 129.74786 220.791532 C 129.584251 218.790882 129.084815 217.375369 128.249551 216.54069 C 127.418592 215.70601 127.00096 214.95738 127.00096 214.290497 C 127.00096 213.623614 126.583328 212.707188 125.748063 211.541218 C 124.917105 210.375248 123.668514 208.288549 121.997985 205.289727 C 120.331762 202.290904 118.751649 198.289606 117.249034 193.290134 C 115.750725 188.290662 114.583938 185.623129 113.748674 185.291839 L 112.500083 184.78845 L 112.999519 160.789264 L 115.501007 158.539071 C 117.16723 157.041811 118.50193 155.540249 119.500803 154.038686 C 120.499676 152.541426 122.333813 151.039863 124.998909 149.538301 C 127.66831 148.041041 131.500193 146.956818 136.498862 146.289935 C 141.501836 145.623052 145.165805 145.623052 147.499378 146.289935 C 149.832952 146.956818 151.417371 147.541954 152.248329 148.041041 C 153.083594 148.540127 154.25038 149.288758 155.748689 150.291233 L 158.000459 151.788493 L 159.748486 155.290705 C 160.915273 157.622645 162.082059 163.121203 163.248846 171.790684 C 164.415633 180.455861 165.418811 185.291839 166.24977 186.290012 C 167.085034 187.288186 167.748079 187.955069 168.251821 188.290662 Z M 168.251821 188.290662 " stroke="#000000" stroke-width="2" stroke-opacity="1" stroke-miterlimit="4"/><path stroke-linecap="butt" transform="matrix(0.907273, 0, 0, 0.907908, 425.584086, 20.475109)" fill-opacity="1" fill="#000000" fill-rule="evenodd" stroke-linejoin="miter" d="M 227.999049 189.538378 L 228.997922 189.787922 L 227.000177 201.791817 L 220.998329 199.038236 C 216.998533 197.205383 212.998736 195.871617 208.99894 195.04124 L 203.001398 193.78922 L 203.500834 192.29196 L 204.000271 190.790398 L 200.999347 190.291311 C 199.001601 189.955718 197.998423 189.624428 197.998423 189.288835 L 197.998423 188.789748 L 198.248141 188.290662 C 198.416055 187.955069 198.49786 187.124692 198.49786 185.790926 L 198.49786 183.790277 L 200.000474 181.789627 C 200.999347 180.455861 201.584893 179.457688 201.748501 178.790805 C 201.916415 178.123922 202.501962 177.457038 203.500834 176.790155 C 204.499707 176.123272 206.16593 175.206846 208.499503 174.040876 L 211.999864 172.28977 L 214.501351 173.287944 C 216.167574 173.954827 218.083515 175.374642 220.249175 177.538785 C 222.414834 179.707231 224.085363 182.206967 225.252149 185.037993 C 226.414631 187.873322 227.331699 189.374885 227.999049 189.538378 Z M 227.999049 189.538378 " stroke="#000000" stroke-width="2" stroke-opacity="1" stroke-miterlimit="4"/><path stroke-linecap="butt" transform="matrix(0.907273, 0, 0, 0.907908, 425.584086, 20.475109)" fill-opacity="1" fill="#000000" fill-rule="evenodd" stroke-linejoin="miter" d="M 202.247938 526.79191 L 203.001398 530.788906 L 202.501962 532.789556 L 201.99822 534.790205 L 195.501241 531.541839 C 191.165617 529.373393 188.418717 527.204948 187.25193 525.040804 C 186.085144 522.872359 185.168075 520.622166 184.500725 518.290227 L 183.501852 514.788015 L 184.500725 514.788015 C 185.168075 514.788015 187.084016 514.288928 190.248548 513.290755 L 195.001805 511.789192 L 197.498987 511.539649 C 199.16521 511.371852 200.331997 511.457902 200.999347 511.789192 L 201.99822 512.288279 L 201.748501 513.540298 C 201.584893 514.374978 201.416979 515.454898 201.249065 516.788664 C 201.085457 518.12243 201.249065 518.95711 201.748501 519.2884 C 202.247938 519.623993 202.334048 520.290876 201.99822 521.289049 C 201.666697 522.291525 201.748501 524.124378 202.247938 526.79191 Z M 202.247938 526.79191 " stroke="#000000" stroke-width="2" stroke-opacity="1" stroke-miterlimit="4"/><path stroke-linecap="butt" transform="matrix(0.907273, 0, 0, 0.907908, 425.584086, 20.475109)" fill-opacity="1" fill="#000000" fill-rule="evenodd" stroke-linejoin="miter" d="M 246.999159 529.042103 L 238.999566 530.788906 L 238.000693 530.788906 L 238.000693 524.791261 L 234.750051 513.290755 C 232.584392 505.62375 231.499409 501.622452 231.499409 501.291162 C 231.499409 500.955569 231.417605 500.125192 231.249691 498.791426 L 230.999973 496.790776 L 229.501664 490.289742 L 227.999049 483.788708 L 228.997922 483.788708 L 230.0011 484.54164 L 230.999973 485.29027 L 239.499002 484.292097 C 245.165022 483.625214 248.252055 483.040078 248.751492 482.540991 L 249.500646 481.788058 L 250.000083 479.791712 L 250.749237 478.789236 L 251.498392 477.791062 L 254.499315 486.791833 C 256.501366 492.789478 257.831762 496.455184 258.499112 497.78895 C 259.166462 499.122716 259.665899 500.456482 260.001726 501.790248 C 260.333249 503.124015 260.415053 506.04109 260.251445 510.541475 C 260.083531 515.041861 259.665899 517.70509 258.998548 518.53977 C 258.331198 519.374449 258.417308 519.955283 259.248266 520.290876 C 260.083531 520.622166 260.333249 521.456846 260.001726 522.790612 L 259.497985 524.791261 L 257.250521 526.038978 C 255.747906 526.873657 252.333656 527.871831 246.999159 529.042103 Z M 246.999159 529.042103 " stroke="#000000" stroke-width="2" stroke-opacity="1" stroke-miterlimit="4"/><path fill="#000000" d="M 715.683594 458.351562 L 715.910156 457.894531 L 717.726562 457.894531 L 717.953125 461.527344 C 718.105469 463.949219 718.480469 466.21875 719.085938 468.335938 C 719.691406 470.457031 720.597656 473.480469 721.808594 477.417969 C 723.019531 481.351562 723.851562 483.847656 724.304688 484.90625 C 724.757812 485.964844 725.4375 487.78125 726.34375 490.355469 L 727.707031 494.210938 L 729.519531 494.894531 C 730.730469 495.347656 731.484375 496.253906 731.789062 497.617188 C 732.089844 498.980469 732.542969 499.660156 733.148438 499.660156 L 734.058594 499.660156 L 734.964844 500.796875 C 735.570312 501.550781 735.945312 502.460938 736.097656 503.519531 C 736.25 504.578125 736.628906 505.710938 737.230469 506.921875 C 737.835938 508.132812 738.59375 510.253906 739.5 513.277344 C 740.40625 516.304688 740.710938 518.574219 740.40625 520.089844 C 740.105469 521.601562 739.652344 524.324219 739.046875 528.257812 L 738.140625 534.160156 L 737.230469 535.523438 C 736.628906 536.429688 736.097656 536.960938 735.644531 537.113281 C 735.191406 537.261719 734.585938 537.414062 733.828125 537.566406 C 733.074219 537.714844 731.714844 538.320312 729.746094 539.382812 C 727.78125 540.441406 723.019531 541.273438 715.457031 541.878906 C 707.898438 542.484375 703.664062 542.710938 702.757812 542.558594 L 701.394531 542.332031 L 701.621094 541.425781 C 701.773438 540.820312 701.242188 540.0625 700.035156 539.152344 C 698.824219 538.246094 698.371094 536.734375 698.671875 534.613281 C 698.976562 532.496094 699.125 531.285156 699.125 530.984375 C 699.125 530.679688 699.277344 529.773438 699.582031 528.257812 C 699.882812 526.746094 700.789062 524.628906 702.300781 521.902344 C 703.8125 519.179688 704.871094 516.609375 705.476562 514.1875 L 706.386719 510.554688 L 705.929688 507.832031 C 705.628906 506.015625 705.402344 503.140625 705.25 499.207031 C 705.101562 495.273438 704.644531 492.398438 703.890625 490.582031 C 703.132812 488.765625 702.605469 487.554688 702.300781 486.949219 C 702 486.34375 701.394531 485.4375 700.488281 484.226562 C 699.582031 483.015625 698.976562 481.351562 698.671875 479.230469 C 698.371094 477.113281 697.539062 474.542969 696.179688 471.515625 L 694.136719 466.976562 L 695.042969 466.976562 L 699.582031 465.839844 C 702.605469 465.082031 705.929688 463.796875 709.558594 461.980469 C 713.191406 460.167969 715.078125 459.183594 715.230469 459.03125 L 715.457031 458.804688 Z M 715.683594 458.351562 " fill-opacity="1" fill-rule="evenodd"/><g clip-path="url(#008bf2d73d)"><path stroke-linecap="butt" transform="matrix(0.907273, 0, 0, 0.907908, 425.584086, 20.475109)" fill="none" stroke-linejoin="miter" d="M 319.748955 482.291447 L 319.998673 481.788058 L 322.000724 481.788058 L 322.250442 485.789357 C 322.418356 488.456889 322.831683 490.956625 323.499033 493.288565 C 324.166384 495.624807 325.165256 498.95492 326.499957 503.291811 C 327.834658 507.6244 328.751726 510.373679 329.251163 511.539649 C 329.750599 512.705619 330.499754 514.706268 331.498626 517.541597 L 333.001241 521.788136 L 334.998986 522.541068 C 336.333687 523.040155 337.164646 524.038329 337.500474 525.539891 C 337.831996 527.041454 338.331433 527.790084 338.998783 527.790084 L 340.001961 527.790084 L 341.000834 529.042103 C 341.668184 529.87248 342.081511 530.874956 342.249425 532.040926 C 342.417339 533.206895 342.834971 534.454612 343.498016 535.788378 C 344.165366 537.122144 345.00063 539.458386 345.999503 542.788499 C 346.998376 546.122915 347.334204 548.622651 346.998376 550.29201 C 346.666853 551.957066 346.167417 554.955889 345.500067 559.288478 L 344.501194 565.789512 L 343.498016 567.291075 C 342.834971 568.289248 342.249425 568.874384 341.749988 569.042181 C 341.250552 569.205674 340.583202 569.373471 339.747937 569.541267 C 338.916979 569.704761 337.418669 570.371644 335.248705 571.541916 C 333.083045 572.707886 327.834658 573.624313 319.499237 574.291196 C 311.168122 574.958079 306.500975 575.207622 305.502102 575.039826 L 303.999487 574.790282 L 304.249206 573.792109 C 304.41712 573.125226 303.831574 572.290547 302.501178 571.288071 C 301.166478 570.289897 300.667041 568.624841 300.998564 566.288599 C 301.334392 563.956659 301.498 562.622893 301.498 562.291603 C 301.498 561.95601 301.665914 560.957837 302.001742 559.288478 C 302.333264 557.623421 303.332137 555.291482 304.99836 552.288356 C 306.664583 549.289534 307.83137 546.458508 308.49872 543.790975 L 309.501899 539.789677 L 308.998157 536.790854 C 308.666634 534.790205 308.416916 531.623586 308.249002 527.290997 C 308.085394 522.958408 307.581652 519.791789 306.750693 517.79114 C 305.915429 515.790491 305.334188 514.456724 304.99836 513.789841 C 304.666838 513.122958 303.999487 512.124785 303.000615 510.791019 C 302.001742 509.457253 301.334392 507.6244 300.998564 505.288158 C 300.667041 502.956218 299.749973 500.125192 298.251664 496.790776 L 295.999895 491.791305 L 296.998767 491.791305 L 302.001742 490.539285 C 305.334188 489.704606 308.998157 488.289093 312.997953 486.288444 C 317.002055 484.292097 319.081605 483.207874 319.249519 483.040078 L 319.499237 482.790534 Z M 319.748955 482.291447 " stroke="#000000" stroke-width="2" stroke-opacity="1" stroke-miterlimit="4"/></g><path stroke-linecap="butt" transform="matrix(0.907273, 0, 0, 0.907908, 425.584086, 20.475109)" fill-opacity="1" fill="#000000" fill-rule="evenodd" stroke-linejoin="miter" d="M 209.248658 423.291656 L 208.99894 412.789323 L 218.001711 414.041342 C 223.999253 414.871719 229.583468 416.205485 234.750051 418.038338 L 242.499926 420.79192 L 242.999362 422.788266 L 242.250208 423.790742 C 241.750771 424.457625 241.832576 426.458275 242.499926 429.788388 C 243.167276 433.122803 244.665585 437.958781 246.999159 444.292019 C 249.332732 450.625257 250.417715 458.124465 250.249801 466.789643 L 250.000083 479.791712 L 249.500646 481.788058 L 248.751492 482.540991 C 248.252055 483.040078 245.165022 483.625214 239.499002 484.292097 L 230.999973 485.29027 L 230.0011 484.54164 L 228.997922 483.788708 L 227.749331 480.290798 C 226.918372 477.954556 226.164912 476.2895 225.501867 475.291326 C 224.834517 474.28885 223.66773 472.623794 222.001507 470.291854 C 220.335284 467.955612 218.664756 464.788993 216.998533 460.791997 C 215.33231 456.790699 213.666087 451.29214 211.999864 444.292019 C 210.33364 437.291898 209.416572 430.291777 209.248658 423.291656 Z M 209.248658 423.291656 " stroke="#000000" stroke-width="2" stroke-opacity="1" stroke-miterlimit="4"/><path stroke-linecap="butt" transform="matrix(0.907273, 0, 0, 0.907908, 425.584086, 20.475109)" fill-opacity="1" fill="#000000" fill-rule="evenodd" stroke-linejoin="miter" d="M 272.500552 386.539944 L 275.00204 386.789487 L 277.249503 388.29105 C 278.752118 389.289223 280.082513 389.956106 281.2493 390.291699 C 282.416086 390.622989 283.582873 391.122076 284.74966 391.788959 C 285.916446 392.455842 286.751711 393.122725 287.251147 393.789608 L 288.000302 394.792084 L 287.750583 397.790907 C 287.58267 399.791556 287.668779 401.288816 288.000302 402.291292 C 288.331824 403.289466 288.331824 404.455435 288.000302 405.789202 L 287.500865 407.789851 L 294.501585 415.788145 C 299.168732 421.12321 302.415069 425.455799 304.249206 428.790214 C 306.083343 432.12463 307.331934 433.789686 307.999284 433.789686 C 308.666634 433.789686 309.501899 435.205199 310.500771 438.040528 C 311.499644 440.871554 312.334908 442.373117 312.997953 442.540913 L 314.001131 442.790457 L 313.751413 443.289543 C 313.583499 443.625136 313.833217 446.623959 314.500568 452.290314 C 315.167918 457.956669 316.084987 463.123937 317.251773 467.792118 L 318.999801 474.787937 L 319.499237 478.290149 L 319.998673 481.788058 L 319.748955 482.291447 L 319.499237 482.790534 L 319.249519 483.040078 C 319.081605 483.207874 317.002055 484.292097 312.997953 486.288444 C 308.998157 488.289093 305.334188 489.704606 302.001742 490.539285 L 296.998767 491.791305 L 295.999895 491.038372 C 295.332544 490.539285 293.748125 488.039549 291.250944 483.539164 C 288.749456 479.038779 287.083233 476.457296 286.247969 475.790413 L 284.999378 474.787937 L 284.000505 470.790941 C 283.333155 468.123409 282.833719 466.789643 282.497891 466.789643 L 281.998454 466.789643 L 280.250427 463.291733 C 279.08364 460.955491 277.167699 456.790699 274.498298 450.788751 C 271.833202 444.791106 269.499628 439.623837 267.501883 435.291249 C 265.499832 430.95866 263.833609 427.288652 262.498908 424.289829 C 261.168513 421.291006 259.584094 419.621647 257.749957 419.290357 C 255.91582 418.954764 254.835143 419.122561 254.499315 419.789444 L 253.999879 420.79192 L 250.998955 420.79192 L 250.998955 419.789444 L 251.74811 416.790621 C 252.251852 414.789972 251.83422 411.623353 250.499519 407.290764 C 249.164818 402.958175 248.084141 398.289994 247.248877 393.290522 L 246.000286 385.791314 L 247.248877 385.791314 C 248.084141 385.791314 248.583578 385.705265 248.751492 385.541771 C 248.9151 385.373974 249.66856 385.124431 250.998955 384.788838 C 252.333656 384.457548 255.834016 384.625344 261.500036 385.287925 C 267.166055 385.954808 270.834329 386.372148 272.500552 386.539944 Z M 272.500552 386.539944 " stroke="#000000" stroke-width="2" stroke-opacity="1" stroke-miterlimit="4"/><path stroke-linecap="butt" transform="matrix(0.907273, 0, 0, 0.907908, 425.584086, 20.475109)" fill-opacity="1" fill="#000000" fill-rule="evenodd" stroke-linejoin="miter" d="M 246.000286 306.040702 L 246.999159 305.791159 L 247.748313 307.288419 L 248.501773 308.789981 L 249.00121 311.788804 C 249.332732 313.789453 249.332732 315.123219 249.00121 315.790102 C 248.665382 316.456986 248.665382 317.291665 249.00121 318.289838 C 249.332732 319.288012 249.58245 320.621778 249.750364 322.291137 L 250.000083 324.790873 L 249.00121 324.790873 L 248.501773 326.541979 C 248.165946 327.707949 247.584705 328.706122 246.749441 329.540801 C 245.918482 330.375481 245.001413 332.457877 243.998235 335.78799 C 242.999362 339.122405 242.332012 345.124353 242.00049 353.789531 C 241.664662 362.454708 241.918685 369.123539 242.749644 373.791721 L 243.998235 380.791842 L 244.501977 382.039559 C 244.833499 382.874238 245.332936 383.205529 246.000286 383.042035 L 246.999159 382.788189 L 246.000286 385.791314 L 247.248877 393.290522 C 248.084141 398.289994 249.164818 402.958175 250.499519 407.290764 C 251.83422 411.623353 252.41546 414.789972 252.251852 416.790621 L 252.002134 419.789444 L 250.998955 419.789444 L 249.500646 419.5399 C 248.501773 419.372104 245.50085 418.287881 240.497875 416.291534 C 235.499206 414.290885 229.165836 412.458032 221.502071 410.788673 C 213.834001 409.123617 208.331589 407.871598 204.999143 407.041221 L 200.000474 405.789202 L 199.001601 405.789202 L 199.501038 396.788431 L 200.000474 387.791963 L 200.499911 382.289102 C 200.831433 378.623396 201.249065 376.291457 201.748501 375.288981 C 202.247938 374.290808 203.33292 371.455479 204.999143 366.7916 C 206.665366 362.123418 208.081871 357.455237 209.248658 352.791357 C 210.415445 348.123176 211.668341 345.455644 212.998736 344.78876 L 215.000787 343.790587 L 215.500224 337.289553 C 215.831746 332.956964 216.417292 329.790345 217.248251 327.789696 C 218.083515 325.789046 218.582952 324.623076 218.750866 324.291786 L 219.000584 323.788397 L 221.248047 322.790224 C 222.750662 322.123341 223.749535 321.706001 224.248971 321.538204 L 224.998126 321.288661 L 225.501867 323.538854 C 225.83339 325.040416 226.332826 325.707299 227.000177 325.539503 C 227.667527 325.371707 228.416681 324.205737 229.251946 322.041594 C 230.082905 319.873148 231.167887 317.123869 232.498282 313.789453 C 233.832983 310.455038 234.917965 308.458691 235.748924 307.791808 L 237.00182 306.789332 L 237.501257 306.789332 C 237.832779 306.789332 237.664865 310.622834 237.00182 318.289838 L 235.998642 329.790345 L 237.00182 329.790345 C 237.664865 329.790345 238.581934 328.125288 239.748721 324.790873 C 240.915507 321.456457 242.082294 319.206265 243.249081 318.040295 L 245.001413 316.289189 L 243.748517 315.041472 C 242.917558 314.206793 242.917558 312.541736 243.748517 310.042001 C 244.583781 307.537962 245.332936 306.208498 246.000286 306.040702 Z M 246.000286 306.040702 " stroke="#000000" stroke-width="2" stroke-opacity="1" stroke-miterlimit="4"/><path stroke-linecap="butt" transform="matrix(0.907273, 0, 0, 0.907908, 425.584086, 20.475109)" fill-opacity="1" fill="#000000" fill-rule="evenodd" stroke-linejoin="miter" d="M 200.999347 408.039394 L 200.000474 405.789202 L 204.999143 407.041221 C 208.331589 407.871598 213.834001 409.123617 221.502071 410.788673 C 229.165836 412.458032 235.499206 414.290885 240.497875 416.291534 C 245.50085 418.287881 248.501773 419.372104 249.500646 419.5399 L 250.998955 419.789444 L 250.998955 420.79192 L 253.999879 420.79192 L 253.750161 423.291656 C 253.582247 424.956712 253.418638 425.873139 253.250724 426.040935 C 253.082811 426.208731 251.334783 425.705342 247.998032 424.539372 L 242.999362 422.788266 L 242.499926 420.79192 L 234.750051 418.038338 C 229.583468 416.205485 223.999253 414.871719 218.001711 414.041342 L 208.99894 412.789323 L 206.501758 412.040693 L 204.000271 411.292063 L 203.001398 410.788673 C 202.334048 410.457383 201.666697 409.540957 200.999347 408.039394 Z M 200.999347 408.039394 " stroke="#000000" stroke-width="2" stroke-opacity="1" stroke-miterlimit="4"/><path stroke-linecap="butt" transform="matrix(0.907273, 0, 0, 0.907908, 425.584086, 20.475109)" fill-opacity="1" fill="#000000" fill-rule="evenodd" stroke-linejoin="miter" d="M 296.998767 321.039118 L 299.999691 323.788397 L 298.001946 324.03794 C 296.667245 324.205737 294.833108 324.205737 292.499534 324.03794 L 288.999174 323.788397 L 285.748533 337.788639 C 283.582873 347.125002 281.666932 354.125124 280.000709 358.789003 C 278.334486 363.457184 276.500349 368.28886 274.498298 373.288332 C 272.500552 378.292106 271.501679 381.123132 271.501679 381.790015 L 271.501679 382.788189 L 273.249707 384.788838 L 275.00204 386.789487 L 272.500552 386.539944 C 270.834329 386.372148 267.166055 385.954808 261.500036 385.287925 C 255.834016 384.625344 252.333656 384.457548 250.998955 384.788838 C 249.66856 385.124431 248.9151 385.373974 248.751492 385.541771 C 248.583578 385.705265 248.084141 385.791314 247.248877 385.791314 L 246.000286 385.791314 L 246.499723 384.289751 C 246.831245 383.291578 246.581527 382.955985 245.750568 383.291578 L 244.501977 383.790665 L 244.247953 382.289102 L 243.998235 380.791842 L 245.50085 379.539823 C 246.499723 378.705143 250.499519 377.956513 257.500239 377.28963 L 268.001319 376.291457 L 265.499832 375.288981 C 263.833609 374.622098 263.665695 373.955215 265.000396 373.288332 C 266.335096 372.621449 267.415773 372.371905 268.251038 372.539702 C 269.081996 372.707498 270.666415 370.121713 272.999989 364.790951 C 275.333562 359.455886 276.500349 356.62486 276.500349 356.289267 C 276.500349 355.957977 276.582153 355.454587 276.750067 354.792007 C 276.917981 354.125124 276.831871 353.208697 276.500349 352.038425 L 276.000912 350.291622 L 276.999785 349.788232 C 277.667135 349.456942 278.752118 347.038953 280.250427 342.538568 C 281.748736 338.038183 283.083437 332.956964 284.250223 327.290609 L 285.998251 318.788925 L 280.000709 318.289838 C 276.000912 317.958548 273.998861 317.622955 273.998861 317.291665 L 273.998861 316.788276 L 282.751914 315.790102 L 291.500662 314.791929 L 292.749253 316.538733 C 293.584517 317.704702 295.001022 319.206265 296.998767 321.039118 Z M 296.998767 321.039118 " stroke="#000000" stroke-width="2" stroke-opacity="1" stroke-miterlimit="4"/><path stroke-linecap="butt" transform="matrix(0.907273, 0, 0, 0.907908, 425.584086, 20.475109)" fill-opacity="1" fill="#000000" fill-rule="evenodd" stroke-linejoin="miter" d="M 270.997938 317.042122 L 273.998861 316.788276 L 273.998861 317.291665 C 273.998861 317.622955 276.000912 317.958548 280.000709 318.289838 L 285.998251 318.788925 L 284.250223 327.290609 C 283.083437 332.956964 281.748736 338.038183 280.250427 342.538568 C 278.752118 347.038953 277.667135 349.456942 276.999785 349.788232 L 276.000912 350.291622 L 276.500349 352.038425 C 276.831871 353.208697 276.917981 354.125124 276.750067 354.792007 C 276.582153 355.454587 276.500349 355.957977 276.500349 356.289267 C 276.500349 356.62486 275.333562 359.455886 272.999989 364.790951 C 270.666415 370.121713 269.081996 372.707498 268.251038 372.539702 C 267.415773 372.371905 266.335096 372.621449 265.000396 373.288332 C 263.665695 373.955215 263.833609 374.622098 265.499832 375.288981 L 268.001319 376.291457 L 257.500239 377.28963 C 250.499519 377.956513 246.499723 378.705143 245.50085 379.539823 L 243.998235 380.791842 L 242.749644 373.791721 C 241.918685 369.123539 241.664662 362.454708 242.00049 353.789531 C 242.332012 345.124353 242.999362 339.122405 243.998235 335.78799 C 245.001413 332.457877 245.918482 330.375481 246.749441 329.540801 C 247.584705 328.706122 248.165946 327.707949 248.501773 326.541979 L 249.00121 324.790873 L 250.000083 324.790873 L 252.50157 325.040416 C 254.167793 325.208213 255.584298 324.54133 256.751085 323.039767 C 257.917871 321.538204 258.417308 320.621778 258.249394 320.290488 L 257.999676 319.791401 L 262.998345 318.539382 C 266.335096 317.704702 269.000192 317.205616 270.997938 317.042122 Z M 270.997938 317.042122 " stroke="#000000" stroke-width="2" stroke-opacity="1" stroke-miterlimit="4"/><path stroke-linecap="butt" transform="matrix(0.907273, 0, 0, 0.907908, 425.584086, 20.475109)" fill-opacity="1" fill="#000000" fill-rule="evenodd" stroke-linejoin="miter" d="M 298.001946 324.03794 L 299.999691 323.788397 L 302.001742 325.040416 C 303.332137 325.875096 303.999487 326.623726 303.999487 327.290609 C 303.999487 327.957492 305.166274 329.373005 307.499848 331.541451 L 311.000208 334.789817 L 311.499644 335.78799 L 310.500771 338.292028 C 309.833421 339.957085 309.247875 341.957734 308.748438 344.289674 L 307.999284 347.791886 L 307.250129 348.790059 C 306.750693 349.456942 305.415992 352.038425 303.250333 356.53881 L 299.999691 363.289388 L 300.249409 364.541407 C 300.417323 365.371784 300.834955 366.955094 301.498 369.291336 L 302.501178 372.789245 L 300.249409 376.790544 C 298.7511 379.458076 297.584313 381.123132 296.749049 381.790015 C 295.91809 382.456899 294.501585 384.625344 292.499534 388.29105 L 289.498611 393.789608 L 288.749456 394.288695 L 288.000302 394.792084 L 287.251147 393.789608 C 286.751711 393.122725 285.916446 392.455842 284.74966 391.788959 C 283.582873 391.122076 282.416086 390.622989 281.2493 390.291699 C 280.082513 389.956106 278.752118 389.289223 277.249503 388.29105 L 275.00204 386.789487 L 273.249707 384.788838 L 271.501679 382.788189 L 271.501679 381.790015 C 271.501679 381.123132 272.500552 378.292106 274.498298 373.288332 C 276.500349 368.28886 278.334486 363.457184 280.000709 358.789003 C 281.666932 354.125124 283.582873 347.125002 285.748533 337.788639 L 288.999174 323.788397 L 292.499534 324.03794 C 294.833108 324.205737 296.667245 324.205737 298.001946 324.03794 Z M 298.001946 324.03794 " stroke="#000000" stroke-width="2" stroke-opacity="1" stroke-miterlimit="4"/><path stroke-linecap="butt" transform="matrix(0.907273, 0, 0, 0.907908, 425.584086, 20.475109)" fill-opacity="1" fill="#000000" fill-rule="evenodd" stroke-linejoin="miter" d="M 236.498079 523.539242 L 238.000693 524.791261 L 238.000693 530.788906 L 238.999566 530.788906 L 239.249284 532.290469 C 239.417198 533.288642 238.999566 535.788378 238.000693 539.789677 C 237.00182 543.790975 236.416274 545.955118 236.24836 546.290711 L 235.998642 546.789798 L 228.498486 547.538428 C 223.499817 548.041817 220.834721 548.123564 220.498893 547.787971 C 220.16737 547.456681 218.664756 546.957594 215.99966 546.290711 C 213.334564 545.623828 210.501554 546.204662 207.500631 548.041817 L 203.001398 550.791096 L 201.748501 548.790447 C 200.917543 547.456681 200.749629 544.789149 201.249065 540.78785 L 201.99822 534.790205 L 202.501962 532.789556 L 203.001398 530.788906 L 204.000271 531.541839 L 204.999143 532.290469 L 211.999864 531.287993 C 216.66701 530.625412 220.585003 529.54119 223.749535 528.039627 C 226.918372 526.538064 229.251946 525.208601 230.750255 524.038329 C 232.248564 522.872359 233.333546 522.291525 234.000897 522.291525 L 234.99977 522.291525 Z M 236.498079 523.539242 " stroke="#000000" stroke-width="2" stroke-opacity="1" stroke-miterlimit="4"/><path stroke-linecap="butt" transform="matrix(0.907273, 0, 0, 0.907908, 425.584086, 20.475109)" fill-opacity="1" fill="#000000" fill-rule="evenodd" stroke-linejoin="miter" d="M 228.498486 547.538428 L 235.998642 546.789798 L 236.752102 547.288885 L 237.501257 547.787971 L 237.501257 550.791096 C 237.501257 552.791746 236.915711 553.957715 235.748924 554.289006 C 234.582137 554.624599 233.665069 555.205432 233.002024 556.040112 C 232.334674 556.874791 229.833186 557.623421 225.501867 558.290304 C 221.166243 558.957187 217.166447 559.456274 213.498173 559.791867 C 209.834204 560.123157 207.250913 559.538021 205.748298 558.040761 L 203.500834 555.790568 L 203.001398 554.788092 C 202.66557 554.121209 202.583766 553.290832 202.75168 552.288356 L 203.001398 550.791096 L 207.500631 548.041817 C 210.501554 546.204662 213.334564 545.623828 215.99966 546.290711 C 218.664756 546.957594 220.16737 547.456681 220.498893 547.787971 C 220.834721 548.123564 223.499817 548.041817 228.498486 547.538428 Z M 228.498486 547.538428 " stroke="#000000" stroke-width="2" stroke-opacity="1" stroke-miterlimit="4"/><path stroke-linecap="butt" transform="matrix(0.907273, 0, 0, 0.907908, 425.584086, 20.475109)" fill-opacity="1" fill="#000000" fill-rule="evenodd" stroke-linejoin="miter" d="M 252.251852 151.289407 L 253.999879 153.789143 L 253.250724 155.290705 C 252.751288 156.288879 252.833092 158.788615 253.500443 162.789913 C 254.167793 166.791212 255.666102 170.456917 257.999676 173.791333 C 260.333249 177.121446 263.248063 180.206318 266.748423 183.041647 C 270.248783 185.872673 274.334689 188.204612 279.001836 190.041768 C 283.664677 191.874621 285.998251 193.122337 285.998251 193.78922 L 285.998251 194.791696 L 293.498407 195.04124 C 298.501382 195.204733 301.915632 194.873443 303.749769 194.038764 L 306.500975 192.791047 L 306.750693 192.29196 L 307.000411 191.788571 L 307.250129 191.289484 C 307.418043 190.958194 308.085394 189.787922 309.247875 187.791575 C 310.414662 185.790926 311.33173 184.289363 311.99908 183.29119 L 312.997953 181.789627 L 313.751413 181.290541 L 314.500568 180.791454 L 315.000004 184.289363 C 315.331527 186.621303 315.581245 188.458458 315.749159 189.787922 L 315.998877 191.788571 L 315.49944 192.791047 L 315.000004 193.78922 L 314.001131 193.78922 L 313.751413 196.788043 L 313.501695 199.791168 L 314.500568 204.79064 C 315.167918 208.125055 315.749159 212.625441 316.248595 218.291796 L 317.002055 226.789177 L 315.998877 226.789177 L 315.249722 231.289562 C 314.750286 234.288385 314.750286 236.955917 315.249722 239.287857 L 315.998877 242.790068 L 314.750286 241.791895 C 313.915022 241.125012 313.251977 241.538049 312.748235 243.039612 L 311.99908 245.289804 L 312.748235 247.04091 C 313.251977 248.20688 314.332654 251.455246 315.998877 256.790311 C 317.6651 262.125375 318.831887 265.954575 319.499237 268.290817 C 320.166587 270.622757 320.752133 273.122493 321.25157 275.790025 C 321.751006 278.457557 322.000724 280.122614 322.000724 280.789497 L 322.000724 281.791973 L 321.001852 281.791973 L 321.751006 288.792094 C 322.250442 293.455973 322.168638 298.623241 321.501288 304.289596 C 320.833938 309.955951 320.584219 312.954774 320.752133 313.290367 L 321.001852 313.789453 L 321.751006 315.790102 C 322.250442 317.123869 322.418356 318.457635 322.250442 319.791401 L 322.000724 321.79205 L 320.752133 322.790224 C 319.916869 323.457107 319.081605 324.03794 318.250646 324.54133 C 317.415382 325.040416 316.248595 325.371707 314.750286 325.539503 L 312.498517 325.789046 L 311.99908 334.789817 L 311.000208 334.789817 L 307.499848 331.541451 C 305.166274 329.373005 303.999487 327.957492 303.999487 327.290609 C 303.999487 326.623726 303.332137 325.875096 302.001742 325.040416 L 299.999691 323.788397 L 296.998767 321.039118 C 295.001022 319.206265 293.584517 317.704702 292.749253 316.538733 L 291.500662 314.791929 L 282.751914 315.790102 L 273.998861 316.788276 L 270.997938 317.042122 C 269.000192 317.205616 266.335096 317.704702 262.998345 318.539382 L 257.999676 319.791401 L 257.000803 319.288012 L 256.00193 318.788925 L 256.00193 316.788276 L 257.999676 316.788276 C 259.334376 316.788276 260.001726 315.123219 260.001726 311.788804 L 260.001726 306.789332 L 261.000599 306.789332 C 261.66795 306.789332 262.498908 305.292072 263.502087 302.288947 L 265.000396 297.788562 L 273.998861 296.291302 L 274.24858 296.041758 C 274.416493 295.873962 275.832998 293.791566 278.498094 289.790267 L 282.497891 283.788319 L 282.497891 279.791323 C 282.497891 277.123791 282.166368 275.123142 281.499018 273.789376 C 280.831668 272.455609 278.833922 269.788077 275.501476 265.791081 L 270.498501 259.789133 L 269.999065 258.79096 L 270.748219 258.291873 C 271.251961 257.95628 270.334893 255.787835 268.001319 251.790839 C 265.667746 247.78954 263.583891 245.457601 261.749754 244.790718 C 259.915617 244.123835 257.749957 242.123185 255.24847 238.78877 C 252.751288 235.458657 250.835347 233.122415 249.500646 231.788649 C 248.165946 230.454883 246.917355 228.789826 245.750568 226.789177 L 243.998235 223.790354 L 241.501053 223.041724 C 239.83483 222.538335 238.418325 221.871452 237.251539 221.041075 L 235.499206 219.789056 L 233.002024 215.79206 C 231.331495 213.124527 230.164709 211.123878 229.501664 209.790112 C 228.834314 208.456346 228.248768 206.791289 227.749331 204.79064 L 227.000177 201.791817 L 228.997922 189.787922 L 229.501664 189.039292 C 229.833186 188.540205 230.750255 186.539556 232.248564 183.041647 C 233.751179 179.539435 235.081574 176.291069 236.24836 173.287944 L 238.000693 168.791861 L 239.499002 168.791861 C 240.497875 168.791861 242.082294 167.290298 244.247953 164.291476 C 246.417918 161.288351 247.916227 158.457324 248.751492 155.789792 L 250.000083 151.788493 L 250.249801 150.291233 L 250.499519 148.789671 Z M 252.251852 151.289407 " stroke="#000000" stroke-width="2" stroke-opacity="1" stroke-miterlimit="4"/><path stroke-linecap="butt" transform="matrix(0.907273, 0, 0, 0.907908, 425.584086, 20.475109)" fill-opacity="1" fill="#000000" fill-rule="evenodd" stroke-linejoin="miter" d="M 305.502102 191.788571 L 307.000411 191.788571 L 306.750693 192.29196 L 306.500975 192.791047 L 303.749769 194.038764 C 301.915632 194.873443 298.501382 195.204733 293.498407 195.04124 L 285.998251 194.791696 L 285.998251 193.78922 C 285.998251 193.122337 283.664677 191.874621 279.001836 190.041768 C 274.334689 188.204612 270.248783 185.872673 266.748423 183.041647 C 263.248063 180.206318 260.333249 177.121446 257.999676 173.791333 C 255.666102 170.456917 254.167793 166.791212 253.500443 162.789913 C 252.833092 158.788615 252.751288 156.288879 253.250724 155.290705 L 253.999879 153.789143 L 255.498188 150.540777 L 257.000803 147.288108 L 258.74883 147.541954 C 259.915617 147.705448 260.918795 148.041041 261.749754 148.540127 C 262.585018 149.039214 265.499832 150.291233 270.498501 152.291883 L 277.998658 155.290705 L 280.999581 158.788615 C 283.001632 161.124857 285.584924 163.207253 288.749456 165.040106 L 293.498407 167.789385 L 298.501382 177.289242 C 301.833828 183.62248 303.581855 187.623779 303.749769 189.288835 L 303.999487 191.788571 Z M 305.502102 191.788571 " stroke="#000000" stroke-width="2" stroke-opacity="1" stroke-miterlimit="4"/><path fill="#000000" d="M 639.699219 113.570312 L 642.421875 114.707031 L 642.421875 116.523438 L 645.144531 117.429688 C 646.957031 118.035156 647.867188 118.640625 647.867188 119.246094 C 647.867188 119.851562 649.300781 120.609375 652.175781 121.515625 C 655.046875 122.425781 657.921875 124.011719 660.792969 126.28125 C 663.667969 128.550781 667.523438 130.445312 672.363281 131.957031 C 677.199219 133.46875 680.074219 134.378906 680.980469 134.679688 C 681.886719 134.984375 682.796875 135.363281 683.703125 135.816406 L 685.0625 136.496094 L 688.238281 138.992188 C 690.355469 140.65625 692.851562 142.929688 695.722656 145.804688 C 698.597656 148.679688 701.167969 151.78125 703.4375 155.109375 L 706.839844 160.101562 L 706.613281 161.011719 C 706.460938 161.617188 706.839844 163.734375 707.746094 167.367188 C 708.652344 170.996094 709.332031 173.34375 709.789062 174.402344 L 710.46875 175.992188 L 710.242188 176.21875 C 710.089844 176.367188 709.9375 177.957031 709.789062 180.984375 L 709.558594 185.523438 L 708.652344 186.886719 C 708.046875 187.792969 707.214844 189.15625 706.15625 190.972656 C 705.101562 192.785156 704.496094 193.847656 704.34375 194.148438 L 704.117188 194.601562 L 701.394531 194.601562 L 701.167969 192.332031 C 701.015625 190.820312 699.429688 187.1875 696.40625 181.4375 L 691.867188 172.8125 L 687.558594 170.316406 C 684.6875 168.652344 682.34375 166.761719 680.527344 164.640625 L 677.804688 161.464844 L 671 158.742188 C 666.464844 156.925781 663.820312 155.789062 663.0625 155.335938 C 662.308594 154.882812 661.398438 154.578125 660.339844 154.429688 L 658.753906 154.199219 L 657.390625 157.152344 L 656.03125 160.101562 L 654.445312 157.832031 L 652.855469 155.5625 L 652.628906 156.925781 L 652.402344 158.285156 L 651.496094 158.285156 L 651.269531 153.292969 C 651.117188 149.964844 649.90625 147.46875 647.640625 145.804688 C 645.371094 144.136719 643.707031 142.777344 642.648438 141.71875 C 641.589844 140.65625 638.414062 138.539062 633.121094 135.363281 C 627.832031 132.183594 623.824219 129.839844 621.101562 128.324219 C 618.378906 126.8125 615.808594 125.300781 613.390625 123.785156 C 610.96875 122.273438 608.625 120.382812 606.359375 118.113281 C 604.089844 115.84375 602.425781 114.175781 601.367188 113.117188 C 600.308594 112.058594 599.175781 111.074219 597.964844 110.167969 C 596.757812 109.257812 594.640625 107.292969 591.613281 104.265625 C 588.589844 101.238281 586.625 99.046875 585.71875 97.683594 C 584.808594 96.320312 583.296875 95.488281 581.179688 95.1875 L 578.007812 94.734375 L 578.914062 93.824219 C 579.519531 93.21875 578.007812 90.875 574.375 86.789062 C 570.746094 82.703125 568.027344 79.902344 566.210938 78.390625 C 564.398438 76.878906 561.449219 74.378906 557.367188 70.898438 C 553.28125 67.421875 549.730469 63.257812 546.703125 58.417969 C 543.679688 53.574219 540.957031 50.09375 538.539062 47.976562 C 536.121094 45.855469 534.003906 43.585938 532.1875 41.167969 C 530.375 38.746094 529.542969 37.15625 529.695312 36.398438 L 529.921875 35.265625 L 531.28125 35.265625 C 532.1875 35.265625 533.097656 35.71875 534.003906 36.625 C 534.910156 37.535156 536.269531 38.519531 538.085938 39.578125 L 540.808594 41.167969 L 540.582031 40.257812 C 540.429688 39.652344 539.75 36.777344 538.539062 31.632812 C 537.328125 26.488281 536.953125 23.539062 537.40625 22.78125 L 538.085938 21.644531 L 539.902344 21.417969 C 541.109375 21.269531 541.789062 21.644531 541.941406 22.554688 C 542.09375 23.460938 543.378906 25.882812 545.796875 29.816406 C 548.21875 33.75 550.410156 37.003906 552.375 39.578125 C 554.339844 42.148438 556.457031 45.328125 558.726562 49.109375 C 560.996094 52.894531 563.867188 56.828125 567.34375 60.914062 C 570.824219 65 574.074219 68.101562 577.097656 70.21875 C 580.121094 72.335938 582.390625 73.851562 583.902344 74.757812 C 585.414062 75.667969 588.894531 77.785156 594.335938 81.113281 C 599.78125 84.441406 603.410156 86.714844 605.222656 87.921875 C 607.039062 89.132812 609.761719 90.949219 613.390625 93.371094 C 617.019531 95.792969 620.949219 98.820312 625.183594 102.449219 C 629.417969 106.082031 632.441406 108.652344 634.257812 110.167969 C 636.070312 111.679688 637.886719 112.816406 639.699219 113.570312 Z M 639.699219 113.570312 " fill-opacity="1" fill-rule="evenodd"/><g clip-path="url(#c0971f61c6)"><path stroke-linecap="butt" transform="matrix(0.907273, 0, 0, 0.907908, 425.584086, 20.475109)" fill="none" stroke-linejoin="miter" d="M 235.998642 102.538102 L 238.999566 103.790121 L 238.999566 105.790771 L 242.00049 106.788944 C 243.998235 107.455827 245.001413 108.12271 245.001413 108.789593 C 245.001413 109.456476 246.581527 110.291156 249.750364 111.289329 C 252.914897 112.291805 256.083734 114.038608 259.248266 116.538344 C 262.417104 119.03808 266.666619 121.124779 272.001116 122.789835 C 277.331307 124.454892 280.500145 125.457368 281.499018 125.788658 C 282.497891 126.124251 283.501069 126.541591 284.499942 127.040677 L 285.998251 127.789307 L 289.498611 130.538587 C 291.832184 132.37144 294.58339 134.875478 297.747922 138.042097 C 300.91676 141.208716 303.749769 144.624878 306.251257 148.290584 L 310.001335 153.789143 L 309.751617 154.791619 C 309.583703 155.458502 310.001335 157.790441 311.000208 161.79174 C 311.99908 165.788736 312.748235 168.374521 313.251977 169.540491 L 314.001131 171.291597 L 313.751413 171.54114 C 313.583499 171.704634 313.415585 173.45574 313.251977 176.790155 L 312.997953 181.789627 L 311.99908 183.29119 C 311.33173 184.289363 310.414662 185.790926 309.247875 187.791575 C 308.085394 189.787922 307.418043 190.958194 307.250129 191.289484 L 307.000411 191.788571 L 303.999487 191.788571 L 303.749769 189.288835 C 303.581855 187.623779 301.833828 183.62248 298.501382 177.289242 L 293.498407 167.789385 L 288.749456 165.040106 C 285.584924 163.207253 283.001632 161.124857 280.999581 158.788615 L 277.998658 155.290705 L 270.498501 152.291883 C 265.499832 150.291233 262.585018 149.039214 261.749754 148.540127 C 260.918795 148.041041 259.915617 147.705448 258.74883 147.541954 L 257.000803 147.288108 L 255.498188 150.540777 L 253.999879 153.789143 L 252.251852 151.289407 L 250.499519 148.789671 L 250.249801 150.291233 L 250.000083 151.788493 L 249.00121 151.788493 L 248.751492 146.289935 C 248.583578 142.624229 247.248877 139.87495 244.751695 138.042097 C 242.250208 136.204942 240.416071 134.707682 239.249284 133.541712 C 238.082497 132.37144 234.582137 130.0395 228.748204 126.541591 C 222.918576 123.039379 218.501147 120.457896 215.500224 118.788537 C 212.4993 117.12348 209.66629 115.458424 207.001194 113.789065 C 204.331793 112.124009 201.748501 110.041612 199.25132 107.541876 C 196.749832 105.04214 194.915695 103.204985 193.748909 102.039015 C 192.582122 100.873046 191.333531 99.788823 189.99883 98.790649 C 188.668435 97.788174 186.334862 95.62403 182.99811 92.289615 C 179.665664 88.9552 177.500005 86.541513 176.501132 85.03995 C 175.497954 83.538388 173.831731 82.621961 171.498157 82.290671 L 168.002103 81.791584 L 169.000975 80.789109 C 169.668326 80.122226 168.002103 77.540743 163.998001 73.040357 C 159.998204 68.539972 157.001586 65.4551 154.999535 63.790044 C 153.001789 62.124987 149.751148 59.371405 145.251915 55.537903 C 140.748376 51.708704 136.83469 47.122269 133.497938 41.791507 C 130.165492 36.456442 127.164568 32.62294 124.499472 30.291 C 121.834377 27.954758 119.500803 25.455022 117.498752 22.791793 C 115.501007 20.12426 114.583938 18.373154 114.751852 17.538475 L 115.00157 16.290758 L 116.499879 16.290758 C 117.498752 16.290758 118.50193 16.789845 119.500803 17.788018 C 120.499676 18.790494 121.997985 19.874717 124.000036 21.040687 L 127.00096 22.791793 L 126.751242 21.789317 C 126.583328 21.122434 125.834173 17.955815 124.499472 12.28946 C 123.164772 6.623105 122.751445 3.374739 123.250881 2.540059 L 124.000036 1.28804 L 126.002087 1.038497 C 127.332482 0.875003 128.081637 1.28804 128.249551 2.290516 C 128.417465 3.288689 129.83397 5.956222 132.499065 10.28881 C 135.168467 14.621399 137.583844 18.205358 139.749504 21.040687 C 141.915163 23.871713 144.248736 27.373925 146.750224 31.538717 C 149.251711 35.707812 152.416243 40.040401 156.248126 44.540786 C 160.084314 49.041171 163.666478 52.457334 166.998924 54.789273 C 170.33137 57.121213 172.832858 58.790572 174.499081 59.788745 C 176.165304 60.791221 180.001492 63.123161 185.999034 66.788866 C 192.000881 70.454572 196.000678 72.95861 197.998423 74.288074 C 200.000474 75.62184 203.001398 77.62249 207.001194 80.290022 C 211.000991 82.957554 215.33231 86.29197 219.999456 90.288966 C 224.666603 94.290264 227.999049 97.12129 230.0011 98.790649 C 231.998846 100.455706 234.000897 101.707725 235.998642 102.538102 Z M 235.998642 102.538102 " stroke="#000000" stroke-width="2" stroke-opacity="1" stroke-miterlimit="4"/></g><path stroke-linecap="butt" transform="matrix(0.907273, 0, 0, 0.907908, 425.584086, 20.475109)" fill-opacity="1" fill="#000000" fill-rule="evenodd" stroke-linejoin="miter" d="M 290.751507 118.788537 L 285.998251 127.789307 L 284.499942 127.040677 C 283.501069 126.541591 282.497891 126.124251 281.499018 125.788658 C 280.500145 125.457368 277.331307 124.454892 272.001116 122.789835 C 266.666619 121.124779 262.417104 119.03808 259.248266 116.538344 C 256.083734 114.038608 252.914897 112.291805 249.750364 111.289329 C 246.581527 110.291156 245.001413 109.456476 245.001413 108.789593 C 245.001413 108.12271 243.998235 107.455827 242.00049 106.788944 L 238.999566 105.790771 L 238.999566 103.790121 L 240.248157 100.287909 C 241.083421 97.95597 241.333139 96.290913 241.001617 95.288438 C 240.665789 94.290264 240.833703 93.124294 241.501053 91.790528 L 242.499926 89.789879 L 244.247953 87.0406 C 245.41474 85.207747 246.417918 83.873981 247.248877 83.039301 C 248.084141 82.204622 248.833296 80.956905 249.500646 79.291849 L 250.499519 76.792113 L 251.74811 76.03918 C 252.583374 75.540093 253.831965 74.705414 255.498188 73.539444 C 257.168717 72.373474 261.999472 72.205678 269.999065 73.040357 C 277.998658 73.875037 283.832591 74.954957 287.500865 76.288723 C 291.164834 77.62249 293.584517 78.874509 294.751304 80.040479 L 296.499331 81.791584 L 296.998767 85.78858 C 297.334595 88.456113 297.166681 93.124294 296.499331 99.788823 C 295.831981 106.457654 293.916039 112.790892 290.751507 118.788537 Z M 290.751507 118.788537 " stroke="#000000" stroke-width="2" stroke-opacity="1" stroke-miterlimit="4"/><path fill="#000000" d="M 458.246094 371.644531 L 458.246094 369.828125 L 461.875 369.828125 L 461.875 371.191406 C 461.875 372.097656 463.992188 372.929688 468.226562 373.6875 C 472.460938 374.445312 476.316406 375.957031 479.792969 378.226562 C 483.273438 380.496094 485.386719 382.085938 486.144531 382.992188 C 486.902344 383.902344 487.960938 386.171875 489.320312 389.804688 C 490.679688 393.433594 491.058594 397.972656 490.453125 403.421875 C 489.847656 408.871094 488.789062 412.953125 487.277344 415.679688 C 485.765625 418.402344 483.574219 420.898438 480.699219 423.167969 C 477.828125 425.4375 475.183594 427.027344 472.761719 427.933594 C 470.34375 428.84375 465.957031 428.996094 459.605469 428.390625 C 453.257812 427.785156 448.71875 426.726562 445.996094 425.210938 C 443.277344 423.699219 440.933594 421.808594 438.964844 419.539062 C 437 417.265625 435.714844 414.921875 435.109375 412.5 C 434.503906 410.078125 434.355469 405.539062 434.65625 398.882812 L 435.109375 388.894531 L 438.058594 385.492188 C 440.023438 383.222656 441.613281 381.179688 442.824219 379.363281 C 444.03125 377.546875 445.015625 376.261719 445.769531 375.503906 C 446.527344 374.746094 447.132812 374.140625 447.585938 373.6875 L 448.265625 373.007812 L 449.171875 372.554688 L 449.625 372.78125 C 449.929688 372.929688 450.382812 372.929688 450.988281 372.78125 L 451.894531 372.554688 L 452.347656 372.554688 C 452.652344 372.554688 453.710938 372.703125 455.523438 373.007812 C 457.339844 373.308594 458.246094 372.855469 458.246094 371.644531 Z M 458.246094 371.644531 " fill-opacity="1" fill-rule="evenodd"/><g clip-path="url(#368af58c06)"><path stroke-linecap="butt" transform="matrix(0.907273, 0, 0, 0.907908, 425.584086, 20.475109)" fill="none" stroke-linejoin="miter" d="M 36.000209 386.789487 L 36.000209 384.788838 L 40.000005 384.788838 L 40.000005 386.290401 C 40.000005 387.288574 42.333578 388.205 47.000725 389.03968 C 51.667872 389.874359 55.917387 391.539416 59.749269 394.039152 C 63.585457 396.538888 65.914725 398.289994 66.749989 399.288167 C 67.585254 400.290643 68.75204 402.790379 70.250349 406.791677 C 71.748658 410.788673 72.166291 415.788145 71.49894 421.790093 C 70.83159 427.792041 69.664803 432.288124 67.99858 435.291249 C 66.332357 438.290071 63.916979 441.039351 60.748142 443.539087 C 57.58361 446.038823 54.668796 447.789928 51.999394 448.788102 C 49.334299 449.790578 44.499238 449.958374 37.498518 449.291491 C 30.502103 448.624608 25.499128 447.458638 22.498205 445.789279 C 19.501586 444.124223 16.918295 442.041826 14.74833 439.542091 C 12.58267 437.038052 11.166166 434.456569 10.498815 431.789037 C 9.831465 429.121505 9.667856 424.122033 9.999379 416.790621 L 10.498815 405.789202 L 13.749457 402.041749 C 15.915117 399.542013 17.667449 397.29182 19.00215 395.291171 C 20.332545 393.290522 21.417528 391.875009 22.248486 391.040329 C 23.083751 390.20565 23.751101 389.538767 24.250537 389.03968 L 24.999692 388.29105 L 25.998565 387.791963 L 26.498001 388.041507 C 26.833829 388.205 27.333265 388.205 28.000616 388.041507 L 28.999488 387.791963 L 29.498925 387.791963 C 29.834753 387.791963 31.001539 387.955457 32.999285 388.29105 C 35.001336 388.62234 36.000209 388.123254 36.000209 386.789487 Z M 36.000209 386.789487 " stroke="#000000" stroke-width="2" stroke-opacity="1" stroke-miterlimit="4"/></g></svg>